<?xml version="1.0" encoding="UTF-8" standalone="no"?>
<svg
   xmlns:dc="http://purl.org/dc/elements/1.1/"
   xmlns:cc="http://creativecommons.org/ns#"
   xmlns:rdf="http://www.w3.org/1999/02/22-rdf-syntax-ns#"
   xmlns:svg="http://www.w3.org/2000/svg"
   xmlns="http://www.w3.org/2000/svg"
   id="svg11"
   version="1.1"
   viewBox="0 0 23 23"
   height="23"
   width="23">
  <metadata
     id="metadata17">
    <rdf:RDF>
      <cc:Work
         rdf:about="">
        <dc:format>image/svg+xml</dc:format>
        <dc:type
           rdf:resource="http://purl.org/dc/dcmitype/StillImage" />
      </cc:Work>
    </rdf:RDF>
  </metadata>
  <defs
     id="defs15" />
  <!-- Generator: Sketch 52.5 (67469) - http://www.bohemiancoding.com/sketch -->
  <title
     id="title2">Group 6</title>
  <desc
     id="desc4">Created with Sketch.</desc>
  <g
     style="fill:none;fill-rule:evenodd;stroke:none;stroke-width:1"
     id="Page-1">
    <g
       transform="translate(-855,-2052)"
       id="landing-copy-2">
      <g
         transform="translate(855,2052)"
         id="Group-6">
        <circle
           style="fill:#805dff"
           r="11.5"
           cy="11.5"
           cx="11.5"
           id="Oval" />
        <path
           style="fill:#ffffff"
           transform="matrix(0,1,1,0,0.5,-0.5)"
           id="Fill-1"
           d="m 16.304349,12.375 c -0.130436,-0.135418 -0.280936,-0.203124 -0.451505,-0.203124 -0.170569,0 -0.321069,0.06771 -0.451505,0.203124 l -2.754182,2.859376 v -9.0625 c 0,-0.197918 -0.0602,-0.359376 -0.180602,-0.484376 C 12.346153,5.5625 12.190637,5.5 12.000001,5.5 c -0.190637,0 -0.346153,0.0625 -0.466555,0.1875 -0.120403,0.125 -0.180602,0.286458 -0.180602,0.484376 v 9.0625 L 8.5986623,12.375 c -0.1304355,-0.135418 -0.2809356,-0.203124 -0.451505,-0.203124 -0.1705695,0 -0.3210697,0.06771 -0.4515051,0.203124 C 7.5652167,12.510418 7.5,12.666666 7.5,12.84375 c 0,0.177084 0.065217,0.333332 0.1956522,0.46875 l 3.8528428,4 c 0.0301,0.03125 0.06271,0.0599 0.09783,0.08594 0.03512,0.02604 0.06772,0.03906 0.09783,0.03906 0.0301,0.03125 0.07274,0.04948 0.127928,0.05469 0.05518,0.0052 0.09783,0.0078 0.127926,0.0078 0.0301,0 0.07274,-0.0026 0.127925,-0.0078 0.05518,-0.0052 0.09783,-0.02344 0.127928,-0.05469 0.0301,-0.03125 0.06271,-0.05208 0.09783,-0.0625 0.03512,-0.01042 0.06772,-0.03125 0.09783,-0.0625 l 3.852843,-4 C 16.434785,13.177082 16.5,13.020834 16.5,12.84375 16.5,12.666666 16.43479,12.510418 16.304349,12.375 Z" />
      </g>
    </g>
  </g>
</svg>
