<?xml version="1.0" encoding="UTF-8" standalone="no"?>
<svg
   xmlns:dc="http://purl.org/dc/elements/1.1/"
   xmlns:cc="http://creativecommons.org/ns#"
   xmlns:rdf="http://www.w3.org/1999/02/22-rdf-syntax-ns#"
   xmlns:svg="http://www.w3.org/2000/svg"
   xmlns="http://www.w3.org/2000/svg"
   id="svg6"
   viewBox="0 0 1024 1024"
   height="23"
   width="23"
   version="1.1">
  <metadata
     id="metadata12">
    <rdf:RDF>
      <cc:Work
         rdf:about="">
        <dc:format>image/svg+xml</dc:format>
        <dc:type
           rdf:resource="http://purl.org/dc/dcmitype/StillImage" />
      </cc:Work>
    </rdf:RDF>
  </metadata>
  <defs
     id="defs10" />
  <path
     style="fill:#805dff"
     id="path2"
     d="m 0,512 c 0,282.77 229.23,512 512,512 282.77,0 512,-229.23 512,-512 C 1024,229.23 794.77,0 512,0 229.23,0 0,229.23 0,512 Z" />
  <path
     style="fill:#ffffff"
     id="path4"
     d="m 450.783,703.637 c 6.029,-5.807 9.043,-12.508 9.043,-20.102 0,-7.594 -3.014,-14.295 -9.043,-20.102 L 323.479,540.812 h 403.478 c 8.812,0 16,-2.68 21.565,-8.041 5.565,-5.361 8.348,-12.284 8.348,-20.772 0,-8.487 -2.783,-15.411 -8.348,-20.772 -5.565,-5.361 -12.754,-8.041 -21.565,-8.041 H 323.479 L 450.783,360.565 c 6.029,-5.807 9.043,-12.508 9.043,-20.102 0,-7.594 -3.014,-14.295 -9.043,-20.102 -6.029,-5.807 -12.985,-8.711 -20.87,-8.711 -7.885,0 -14.841,2.904 -20.87,8.711 L 230.956,491.896 c -1.391,1.34 -2.667,2.792 -3.826,4.355 -1.159,1.563 -1.739,3.015 -1.739,4.355 -1.391,1.34 -2.203,3.239 -2.435,5.696 -0.232,2.457 -0.348,4.355 -0.348,5.695 0,1.34 0.116,3.239 0.348,5.695 0.232,2.456 1.043,4.355 2.435,5.696 1.391,1.34 2.319,2.792 2.783,4.355 0.464,1.563 1.391,3.015 2.783,4.355 l 178.087,171.535 c 6.029,5.807 12.985,8.711 20.87,8.711 7.885,0 14.841,-2.903 20.87,-8.711 z" />
</svg>
