<svg xmlns="http://www.w3.org/2000/svg" xmlns:xlink="http://www.w3.org/1999/xlink" viewBox="0 0 1600 1200" id="home-comfortable-workplace"><defs><linearGradient id="a" x1="835.66" x2="988.49" y1="1019.99" y2="1019.99" gradientUnits="userSpaceOnUse"><stop offset="0" stop-color="#c2c8e6"></stop><stop offset="1" stop-color="#fff"></stop></linearGradient><linearGradient id="n" x1="371.72" x2="524.56" y1="752.14" y2="752.14" xlink:href="#a"></linearGradient><linearGradient id="o" x1="1138.7" x2="1291.53" y1="845.03" y2="845.03" xlink:href="#a"></linearGradient><linearGradient id="m" x1="443.12" x2="640.58" y1="404.25" y2="404.25" gradientUnits="userSpaceOnUse"><stop offset="0" stop-color="#dae0f5"></stop><stop offset=".63" stop-color="#f5f6fc"></stop><stop offset="1" stop-color="#fff"></stop></linearGradient><linearGradient id="p" x1="861.5" x2="964.76" y1="540.07" y2="540.07" gradientUnits="userSpaceOnUse"><stop offset="0" stop-color="#dae0f5"></stop><stop offset=".33" stop-color="#dee3f6"></stop><stop offset=".66" stop-color="#eaeef9"></stop><stop offset="1" stop-color="#fff"></stop><stop offset="1" stop-color="#fff"></stop></linearGradient><linearGradient id="b" x1="948.18" x2="951.75" y1="510.39" y2="516.58" gradientUnits="userSpaceOnUse"><stop offset="0" stop-color="#5652cc"></stop><stop offset=".33" stop-color="#433eac"></stop><stop offset="1" stop-color="#20196f"></stop></linearGradient><linearGradient id="q" x1="916.67" x2="920.24" y1="528.58" y2="534.78" gradientUnits="userSpaceOnUse"><stop offset="0" stop-color="#fff"></stop><stop offset="1" stop-color="#ced3f8"></stop></linearGradient><linearGradient id="r" x1="890.83" x2="947.49" y1="534.21" y2="534.21" gradientUnits="userSpaceOnUse"><stop offset="0" stop-color="#f1f1f6"></stop><stop offset="1" stop-color="#fff"></stop></linearGradient><linearGradient id="s" x1="917.3" x2="918.35" y1="531.13" y2="532.96" gradientUnits="userSpaceOnUse"><stop offset="0" stop-color="#dae0f5"></stop><stop offset="1" stop-color="#ced3f8"></stop></linearGradient><linearGradient id="t" x1="903.41" x2="904.46" y1="539.15" y2="540.98" gradientUnits="userSpaceOnUse"><stop offset="0" stop-color="#807dfb"></stop><stop offset="1" stop-color="#5652cc"></stop></linearGradient><linearGradient id="u" x1="875.15" x2="879.81" y1="551.26" y2="559.34" xlink:href="#b"></linearGradient><linearGradient id="v" x1="897.19" x2="898.66" y1="538.17" y2="540.71" xlink:href="#b"></linearGradient><linearGradient id="w" x1="883.8" x2="975.86" y1="546.94" y2="546.94" gradientUnits="userSpaceOnUse"><stop offset="0" stop-color="#dae0f5"></stop><stop offset=".35" stop-color="#e3e7f7"></stop><stop offset=".92" stop-color="#fbfcfe"></stop><stop offset="1" stop-color="#fff"></stop></linearGradient><linearGradient id="x" x1="966.22" x2="969.59" y1="518.64" y2="524.24" gradientUnits="userSpaceOnUse"><stop offset="0" stop-color="#6b67e9"></stop><stop offset="1" stop-color="#362e93"></stop></linearGradient><linearGradient id="y" x1="887.86" x2="884.7" y1="570.79" y2="565.24" gradientUnits="userSpaceOnUse"><stop offset="0" stop-color="#bbc0e6"></stop><stop offset="1" stop-color="#f6f6fb"></stop></linearGradient><linearGradient id="z" x1="882.56" x2="881.23" y1="571.74" y2="570.01" gradientUnits="userSpaceOnUse"><stop offset="0" stop-color="#362e93"></stop><stop offset="1" stop-color="#807cfb"></stop></linearGradient><linearGradient id="A" x1="964.51" x2="960.82" y1="527.09" y2="520.88" gradientUnits="userSpaceOnUse"><stop offset=".07" stop-color="#a3a9d0"></stop><stop offset=".14" stop-color="#ced3f8"></stop><stop offset=".56" stop-color="#ced3f8"></stop><stop offset=".69" stop-color="#f6f6fb"></stop></linearGradient><linearGradient id="c" x1="962.53" x2="957.93" y1="528.5" y2="522.67" gradientUnits="userSpaceOnUse"><stop offset=".56" stop-color="#d1d7f3"></stop><stop offset=".69" stop-color="#f1f1f6"></stop></linearGradient><linearGradient id="B" x1="963.43" x2="958.83" y1="527.98" y2="522.15" xlink:href="#c"></linearGradient><linearGradient id="C" x1="964.33" x2="959.73" y1="527.46" y2="521.63" xlink:href="#c"></linearGradient><linearGradient id="D" x1="934.49" x2="1008.16" y1="664.56" y2="664.56" gradientTransform="translate(-1.5)" gradientUnits="userSpaceOnUse"><stop offset="0" stop-color="#d1d7f3"></stop><stop offset=".28" stop-color="#d7ddf5"></stop><stop offset=".66" stop-color="#e9ecf9"></stop><stop offset="1" stop-color="#fff"></stop></linearGradient><linearGradient id="E" x1="976.1" x2="1092.37" y1="678.98" y2="678.98" gradientTransform="matrix(-1 0 0 1 1973.5 0)" gradientUnits="userSpaceOnUse"><stop offset=".52" stop-color="#423eaf"></stop><stop offset=".59" stop-color="#5652cc"></stop></linearGradient><linearGradient id="d" x1="1055.79" x2="1072.26" y1="679.16" y2="679.16" gradientTransform="translate(-116.04)" gradientUnits="userSpaceOnUse"><stop offset="0" stop-color="#c4cae9"></stop><stop offset=".25" stop-color="#cdd2ec"></stop><stop offset=".66" stop-color="#e6e8f6"></stop><stop offset="1" stop-color="#fff"></stop></linearGradient><linearGradient id="e" x1="1053.26" x2="1069.73" y1="680.75" y2="680.75" gradientTransform="translate(-116.04)" gradientUnits="userSpaceOnUse"><stop offset=".41" stop-color="#ced3f8"></stop><stop offset=".57" stop-color="#bbc0e6"></stop></linearGradient><linearGradient id="F" x1="1043.56" x2="1060.04" y1="686.22" y2="686.22" xlink:href="#d"></linearGradient><linearGradient id="G" x1="1041.03" x2="1057.51" y1="687.81" y2="687.81" xlink:href="#e"></linearGradient><linearGradient id="H" x1="1030.98" x2="1047.45" y1="678.95" y2="678.95" xlink:href="#d"></linearGradient><linearGradient id="I" x1="1028.45" x2="1044.92" y1="680.54" y2="680.54" xlink:href="#e"></linearGradient><linearGradient id="J" x1="1043.2" x2="1059.68" y1="671.89" y2="671.89" xlink:href="#d"></linearGradient><linearGradient id="K" x1="1040.67" x2="1057.15" y1="673.48" y2="673.48" xlink:href="#e"></linearGradient><linearGradient id="L" x1="1055.43" x2="1071.9" y1="664.83" y2="664.83" xlink:href="#d"></linearGradient><linearGradient id="M" x1="1052.9" x2="1069.37" y1="666.42" y2="666.42" xlink:href="#e"></linearGradient><linearGradient id="N" x1="1018.4" x2="1034.87" y1="671.68" y2="671.68" xlink:href="#d"></linearGradient><linearGradient id="O" x1="1015.86" x2="1032.34" y1="673.27" y2="673.27" xlink:href="#e"></linearGradient><linearGradient id="P" x1="1030.62" x2="1047.09" y1="664.63" y2="664.63" xlink:href="#d"></linearGradient><linearGradient id="Q" x1="1028.09" x2="1044.56" y1="666.22" y2="666.22" xlink:href="#e"></linearGradient><linearGradient id="R" x1="1042.85" x2="1059.32" y1="657.57" y2="657.57" xlink:href="#d"></linearGradient><linearGradient id="S" x1="1040.31" x2="1056.79" y1="659.16" y2="659.16" xlink:href="#e"></linearGradient><linearGradient id="T" x1="1005.81" x2="1022.29" y1="664.42" y2="664.42" xlink:href="#d"></linearGradient><linearGradient id="U" x1="1003.28" x2="1019.75" y1="666.01" y2="666.01" xlink:href="#e"></linearGradient><linearGradient id="V" x1="1018.04" x2="1034.51" y1="657.36" y2="657.36" xlink:href="#d"></linearGradient><linearGradient id="W" x1="1015.5" x2="1031.98" y1="658.95" y2="658.95" xlink:href="#e"></linearGradient><linearGradient id="X" x1="1030.26" x2="1046.73" y1="650.3" y2="650.3" xlink:href="#d"></linearGradient><linearGradient id="Y" x1="1027.73" x2="1044.2" y1="651.89" y2="651.89" xlink:href="#e"></linearGradient><linearGradient id="Z" x1="1100.1" x2="1116.58" y1="672.1" y2="672.1" gradientTransform="translate(-148.13)" xlink:href="#d"></linearGradient><linearGradient id="aa" x1="1097.57" x2="1114.04" y1="673.69" y2="673.69" gradientTransform="translate(-148.13)" gradientUnits="userSpaceOnUse"><stop offset=".41" stop-color="#fb944b"></stop><stop offset=".57" stop-color="#e57139"></stop></linearGradient><linearGradient id="ab" x1="866.71" x2="876.76" y1="667.01" y2="667.01" gradientTransform="translate(100.79)" xlink:href="#d"></linearGradient><linearGradient id="f" x1="998.75" x2="1012.02" y1="666.74" y2="666.74" gradientTransform="matrix(-1 0 0 1 1973.5 0)" gradientUnits="userSpaceOnUse"><stop offset=".41" stop-color="#bbc0e6"></stop><stop offset=".57" stop-color="#ced3f8"></stop></linearGradient><linearGradient id="ac" x1="853.98" x2="864.03" y1="659.74" y2="659.74" gradientTransform="translate(100.79)" xlink:href="#d"></linearGradient><linearGradient id="ad" x1="1011.33" x2="1024.61" y1="659.48" y2="659.48" xlink:href="#f"></linearGradient><linearGradient id="ae" x1="841.4" x2="851.44" y1="652.48" y2="652.48" gradientTransform="translate(100.79)" xlink:href="#d"></linearGradient><linearGradient id="af" x1="1023.92" x2="1037.19" y1="652.21" y2="652.21" xlink:href="#f"></linearGradient><linearGradient id="ag" x1="828.81" x2="838.86" y1="645.21" y2="645.21" gradientTransform="translate(100.79)" xlink:href="#d"></linearGradient><linearGradient id="ah" x1="1036.5" x2="1049.78" y1="644.94" y2="644.94" gradientTransform="matrix(-1 0 0 1 1973.5 0)" gradientUnits="userSpaceOnUse"><stop offset=".41" stop-color="#bbc0e6"></stop><stop offset=".57" stop-color="#ced3f8"></stop></linearGradient><linearGradient id="g" x1="610.67" x2="762.07" y1="333.74" y2="333.74" gradientUnits="userSpaceOnUse"><stop offset="0" stop-color="#c6cbe7"></stop><stop offset="1" stop-color="#fff"></stop></linearGradient><linearGradient id="ai" x1="572.56" x2="723.96" y1="311.74" y2="311.74" xlink:href="#g"></linearGradient><linearGradient id="aj" x1="1019.29" x2="1169.91" y1="582.86" y2="582.86" xlink:href="#g"></linearGradient><linearGradient id="ak" x1="1026.93" x2="1143.52" y1="578.55" y2="578.55" gradientUnits="userSpaceOnUse"><stop offset="0" stop-color="#d1d7f3"></stop><stop offset=".31" stop-color="#dbe0f6"></stop><stop offset=".84" stop-color="#f6f7fd"></stop><stop offset="1" stop-color="#fff"></stop></linearGradient><linearGradient id="al" x1="1264.62" x2="1272.6" y1="582.24" y2="568.41" gradientTransform="matrix(-1 0 0 1 2346.38 0)" gradientUnits="userSpaceOnUse"><stop offset=".64" stop-color="#362e94"></stop><stop offset=".85" stop-color="#625dd2"></stop><stop offset="1" stop-color="#807dfb"></stop></linearGradient><linearGradient id="am" x1="723.58" x2="891.35" y1="612.72" y2="612.72" gradientUnits="userSpaceOnUse"><stop offset="0" stop-color="#c2c8e6"></stop><stop offset=".31" stop-color="#cbd0e9"></stop><stop offset=".82" stop-color="#e5e6f0"></stop><stop offset="1" stop-color="#efeff3"></stop></linearGradient><linearGradient id="an" x1="721.05" x2="888.82" y1="636.01" y2="636.01" gradientUnits="userSpaceOnUse"><stop offset=".46" stop-color="#807dfb"></stop><stop offset=".56" stop-color="#423eaf"></stop></linearGradient><linearGradient id="ao" x1="790.75" x2="837.98" y1="612.59" y2="612.59" xlink:href="#a"></linearGradient><linearGradient id="ap" x1="771.9" x2="832.47" y1="611.1" y2="611.1" gradientUnits="userSpaceOnUse"><stop offset=".26" stop-color="#6b66e7"></stop><stop offset=".34" stop-color="#605bd7"></stop><stop offset=".49" stop-color="#4440ae"></stop><stop offset=".49" stop-color="#423eac"></stop></linearGradient><linearGradient id="aq" x1="1023.93" x2="1093.29" y1="544.12" y2="544.12" gradientUnits="userSpaceOnUse"><stop offset="0" stop-color="#c4cae9"></stop><stop offset=".25" stop-color="#c8ceeb"></stop><stop offset=".52" stop-color="#d6daf0"></stop><stop offset=".8" stop-color="#ebedf8"></stop><stop offset="1" stop-color="#fff"></stop></linearGradient><linearGradient id="ar" x1="1023.93" x2="1083.42" y1="544.98" y2="544.98" gradientUnits="userSpaceOnUse"><stop offset="0" stop-color="#d1d7f3"></stop><stop offset=".2" stop-color="#d4daf4"></stop><stop offset="1" stop-color="#dae0f5"></stop></linearGradient><linearGradient id="h" x1="1047.5" x2="1050.52" y1="508.22" y2="508.22" gradientUnits="userSpaceOnUse"><stop offset="0" stop-color="#dae0f5"></stop><stop offset=".32" stop-color="#dfe4f6"></stop><stop offset=".68" stop-color="#eceffa"></stop><stop offset="1" stop-color="#fff"></stop></linearGradient><linearGradient id="i" x1="1045.93" x2="1048.77" y1="507.88" y2="507.88" gradientUnits="userSpaceOnUse"><stop offset="0" stop-color="#a5abcc"></stop><stop offset=".39" stop-color="#a9afd1"></stop><stop offset=".82" stop-color="#b4bade"></stop><stop offset="1" stop-color="#bbc0e6"></stop></linearGradient><linearGradient id="j" x1="1046.86" x2="1054" y1="507.83" y2="504.31" gradientUnits="userSpaceOnUse"><stop offset="0" stop-color="#20196f"></stop><stop offset=".02" stop-color="#211a71"></stop><stop offset=".42" stop-color="#39349e"></stop><stop offset=".63" stop-color="#423eaf"></stop><stop offset=".78" stop-color="#4440b2"></stop><stop offset=".9" stop-color="#4b47bc"></stop><stop offset="1" stop-color="#5652cc"></stop></linearGradient><linearGradient id="as" x1="1054.14" x2="1057.16" y1="512.06" y2="512.06" xlink:href="#h"></linearGradient><linearGradient id="at" x1="1052.57" x2="1055.41" y1="511.71" y2="511.71" xlink:href="#i"></linearGradient><linearGradient id="au" x1="1053.51" x2="1060.65" y1="511.66" y2="508.15" xlink:href="#j"></linearGradient><linearGradient id="av" x1="1060.79" x2="1063.8" y1="515.89" y2="515.89" xlink:href="#h"></linearGradient><linearGradient id="aw" x1="1059.22" x2="1062.05" y1="515.55" y2="515.55" xlink:href="#i"></linearGradient><linearGradient id="ax" x1="1060.15" x2="1067.29" y1="515.5" y2="511.98" xlink:href="#j"></linearGradient><linearGradient id="ay" x1="1067.43" x2="1070.44" y1="519.72" y2="519.72" xlink:href="#h"></linearGradient><linearGradient id="az" x1="1065.86" x2="1068.69" y1="519.38" y2="519.38" xlink:href="#i"></linearGradient><linearGradient id="aA" x1="1066.79" x2="1073.93" y1="519.33" y2="515.82" xlink:href="#j"></linearGradient><linearGradient id="aB" x1="1074.07" x2="1077.08" y1="523.56" y2="523.56" xlink:href="#h"></linearGradient><linearGradient id="aC" x1="1072.5" x2="1075.33" y1="523.22" y2="523.22" xlink:href="#i"></linearGradient><linearGradient id="aD" x1="1073.43" x2="1080.57" y1="523.17" y2="519.65" xlink:href="#j"></linearGradient><linearGradient id="aE" x1="785.88" x2="1060.91" y1="463.56" y2="463.56" gradientUnits="userSpaceOnUse"><stop offset="0" stop-color="#c2c8e6"></stop><stop offset=".41" stop-color="#e2e5f3"></stop><stop offset=".77" stop-color="#f7f8fc"></stop><stop offset="1" stop-color="#fff"></stop></linearGradient><linearGradient id="aF" x1="1259.54" x2="1454.73" y1="481.8" y2="481.8" gradientTransform="matrix(-1 0 0 1 2169.34 0)" gradientUnits="userSpaceOnUse"><stop offset=".24" stop-color="#423eac"></stop><stop offset=".3" stop-color="#4440ae"></stop><stop offset=".34" stop-color="#4945b6"></stop><stop offset=".36" stop-color="#524ec4"></stop><stop offset=".38" stop-color="#605bd7"></stop><stop offset=".4" stop-color="#6b66e7"></stop></linearGradient><linearGradient id="aG" x1="783.95" x2="907.2" y1="459.46" y2="459.46" gradientUnits="userSpaceOnUse"><stop offset="0" stop-color="#dae0f5"></stop><stop offset=".32" stop-color="#e0e5f7"></stop><stop offset=".77" stop-color="#f3f5fc"></stop><stop offset="1" stop-color="#fff"></stop></linearGradient><linearGradient id="aH" x1="1452.05" x2="1208.94" y1="27.89" y2="448.98" gradientTransform="matrix(-1 0 0 1 2169.34 0)" gradientUnits="userSpaceOnUse"><stop offset=".63" stop-color="#6b67e9"></stop><stop offset=".7" stop-color="#1f196f"></stop></linearGradient><linearGradient id="aI" x1="727.5" x2="804.1" y1="554.13" y2="554.13" gradientTransform="translate(13.38)" xlink:href="#a"></linearGradient><linearGradient id="aJ" x1="1309.33" x2="1519.33" y1="531.82" y2="531.82" gradientTransform="matrix(-1 0 0 1 2119.18 0)" gradientUnits="userSpaceOnUse"><stop offset=".26" stop-color="#423eaf"></stop><stop offset=".29" stop-color="#4d49bf"></stop><stop offset=".34" stop-color="#6a66e8"></stop><stop offset=".34" stop-color="#6b67e9"></stop></linearGradient><linearGradient id="aK" x1="645.86" x2="720.7" y1="409.29" y2="409.29" gradientUnits="userSpaceOnUse"><stop offset="0" stop-color="#c2c8e6"></stop><stop offset=".23" stop-color="#c7cde8"></stop><stop offset=".52" stop-color="#d6daee"></stop><stop offset=".84" stop-color="#eff1f9"></stop><stop offset="1" stop-color="#fff"></stop></linearGradient><linearGradient id="k" x1="796.8" x2="833.41" y1="913.31" y2="913.31" gradientTransform="scale(1 -1) rotate(60.1 1832.71 98.636)" gradientUnits="userSpaceOnUse"><stop offset="0" stop-color="#5652cc"></stop><stop offset=".38" stop-color="#635fdb"></stop><stop offset="1" stop-color="#807dfb"></stop></linearGradient><linearGradient id="aL" x1="793.55" x2="836.67" y1="887.62" y2="887.62" gradientTransform="scale(1 -1) rotate(60.1 1832.71 98.636)" gradientUnits="userSpaceOnUse"><stop offset="0" stop-color="#362e94"></stop><stop offset=".6" stop-color="#3c37a3"></stop><stop offset="1" stop-color="#423eaf"></stop></linearGradient><linearGradient id="aM" x1="793.55" x2="836.67" y1="859.61" y2="859.61" gradientTransform="scale(1 -1) rotate(60.1 1832.71 98.636)" gradientUnits="userSpaceOnUse"><stop offset="0" stop-color="#20196f"></stop><stop offset=".45" stop-color="#29217e"></stop><stop offset=".97" stop-color="#362e94"></stop><stop offset=".98" stop-color="#3c35a0"></stop><stop offset="1" stop-color="#423eaf"></stop></linearGradient><linearGradient id="aN" x1="807.79" x2="822.43" y1="844.64" y2="844.64" gradientTransform="scale(1 -1) rotate(60.1 1832.71 98.636)" gradientUnits="userSpaceOnUse"><stop offset="0" stop-color="#362e94"></stop><stop offset="1" stop-color="#362e94"></stop></linearGradient><linearGradient id="aO" x1="796.8" x2="833.41" y1="853.56" y2="853.56" xlink:href="#k"></linearGradient><linearGradient id="l" x1="416.52" x2="481.59" y1="1023.04" y2="1023.04" gradientUnits="userSpaceOnUse"><stop offset="0" stop-color="#ced3f8"></stop><stop offset=".47" stop-color="#e7e9fc"></stop><stop offset="1" stop-color="#fff"></stop></linearGradient><linearGradient id="aP" x1="411.28" x2="476.35" y1="909.37" y2="909.37" xlink:href="#l"></linearGradient><linearGradient id="aQ" x1="614.69" x2="679.75" y1="906.4" y2="906.4" xlink:href="#l"></linearGradient><linearGradient id="aR" x1="609.62" x2="674.69" y1="1022.43" y2="1022.43" xlink:href="#l"></linearGradient><linearGradient id="aS" x1="565.84" x2="595.75" y1="901.73" y2="849.91" gradientUnits="userSpaceOnUse"><stop offset=".92" stop-color="#f6f6fb"></stop><stop offset="1" stop-color="#ced3f8"></stop></linearGradient><linearGradient id="aT" x1="1623.95" x2="1653.86" y1="901.73" y2="849.91" gradientTransform="matrix(-1 0 0 1 2101.42 0)" gradientUnits="userSpaceOnUse"><stop offset=".92" stop-color="#f6f6fb"></stop><stop offset="1" stop-color="#fff"></stop></linearGradient><linearGradient id="aU" x1="432.35" x2="488.73" y1="997.22" y2="899.56" gradientUnits="userSpaceOnUse"><stop offset=".01" stop-color="#ced3f8"></stop><stop offset=".06" stop-color="#dee1f9"></stop><stop offset=".14" stop-color="#f0f1fb"></stop><stop offset=".2" stop-color="#f6f6fb"></stop></linearGradient><linearGradient id="aV" x1="715.03" x2="771.42" y1="997.22" y2="899.56" gradientTransform="matrix(-1 0 0 1 1326 0)" gradientUnits="userSpaceOnUse"><stop offset=".01" stop-color="#bbc0e6"></stop><stop offset=".02" stop-color="#c1c6e8"></stop><stop offset=".09" stop-color="#dee0f2"></stop><stop offset=".16" stop-color="#f0f0f9"></stop><stop offset=".2" stop-color="#f6f6fb"></stop></linearGradient><linearGradient id="aW" x1="355.28" x2="688.03" y1="810.19" y2="810.19" gradientUnits="userSpaceOnUse"><stop offset=".39" stop-color="#423eaf"></stop><stop offset=".5" stop-color="#3c36a2"></stop><stop offset=".66" stop-color="#362e94"></stop></linearGradient><linearGradient id="aX" x1="361.68" x2="537.67" y1="517.62" y2="822.45" gradientUnits="userSpaceOnUse"><stop offset=".35" stop-color="#807dfb"></stop><stop offset=".41" stop-color="#6b67e1"></stop><stop offset=".51" stop-color="#4d49bd"></stop><stop offset=".57" stop-color="#423eaf"></stop></linearGradient><linearGradient id="aY" x1="430.97" x2="487.77" y1="309.27" y2="407.66" gradientUnits="userSpaceOnUse"><stop offset=".59" stop-color="#f6f6fb"></stop><stop offset=".69" stop-color="#f2f2f9"></stop><stop offset=".8" stop-color="#e4e6f5"></stop><stop offset=".92" stop-color="#ced2ed"></stop><stop offset="1" stop-color="#bbc0e6"></stop></linearGradient><linearGradient id="aZ" x1="466.07" x2="500.22" y1="341.33" y2="400.47" gradientUnits="userSpaceOnUse"><stop offset=".59" stop-color="#807dfb"></stop><stop offset=".72" stop-color="#7773f1"></stop><stop offset=".94" stop-color="#5e5ad5"></stop><stop offset="1" stop-color="#5652cc"></stop></linearGradient><linearGradient id="ba" x1="389.51" x2="406.18" y1="441.91" y2="413.03" gradientUnits="userSpaceOnUse"><stop offset="0" stop-color="#bbc0e6"></stop><stop offset=".01" stop-color="#bcc1e7"></stop><stop offset=".08" stop-color="#cacff4"></stop><stop offset=".14" stop-color="#ced3f8"></stop></linearGradient><linearGradient id="bb" x1="489.85" x2="504.58" y1="414.23" y2="439.74" gradientUnits="userSpaceOnUse"><stop offset="0" stop-color="#362e94"></stop><stop offset=".09" stop-color="#3c349d"></stop><stop offset=".68" stop-color="#5e59d4"></stop><stop offset=".97" stop-color="#6b67e9"></stop></linearGradient><linearGradient id="bc" x1="492.9" x2="520.29" y1="412.47" y2="459.9" gradientUnits="userSpaceOnUse"><stop offset="0" stop-color="#362e94"></stop><stop offset=".16" stop-color="#5852a6"></stop><stop offset=".57" stop-color="#aca9d4"></stop><stop offset=".86" stop-color="#e1e1f0"></stop><stop offset="1" stop-color="#f6f6fb"></stop></linearGradient><linearGradient id="bd" x1="458.74" x2="497.18" y1="462.47" y2="462.47" gradientUnits="userSpaceOnUse"><stop offset="0" stop-color="#423eaf"></stop><stop offset=".01" stop-color="#4541b0"></stop><stop offset=".18" stop-color="#6e6dc6"></stop><stop offset=".34" stop-color="#9192d8"></stop><stop offset=".51" stop-color="#acaee6"></stop><stop offset=".67" stop-color="#bfc3f0"></stop><stop offset=".84" stop-color="#cacff6"></stop><stop offset="1" stop-color="#ced3f8"></stop></linearGradient><linearGradient id="be" x1="458.74" x2="564.15" y1="435.2" y2="435.2" gradientUnits="userSpaceOnUse"><stop offset="0" stop-color="#dae0f5"></stop><stop offset=".39" stop-color="#eaedf9"></stop><stop offset="1" stop-color="#fff"></stop></linearGradient><linearGradient id="bf" x1="409.2" x2="499.69" y1="319.15" y2="319.15" xlink:href="#m"></linearGradient></defs><g style="isolation:isolate"><rect width="152.83" height="19.37" x="835.66" y="1010.3" fill="url(#a)"></rect><rect width="152.83" height="19.37" x="371.72" y="742.45" fill="url(#n)"></rect><rect width="152.83" height="19.37" x="1138.7" y="835.34" fill="url(#o)"></rect><polygon fill="#423eaf" points="1138.69 854.72 1086.94 650.39 1102.68 641.3 1154.43 845.63 1138.69 854.72"></polygon><polygon fill="#423eaf" points="851.39 1020.59 903.15 756.5 887.41 765.59 835.66 1029.67 851.39 1020.59"></polygon><polygon fill="#6b67e9" points="835.66 1029.67 819.92 1020.59 871.67 756.5 887.41 765.59 835.66 1029.67"></polygon><polygon fill="#6b67e9" points="1138.69 854.72 1122.96 845.63 1071.2 641.3 1086.94 650.39 1138.69 854.72"></polygon><polygon fill="#423eaf" points="882.86 732.48 882.86 783.37 1133.47 638.67 1133.47 587.79 882.86 732.48"></polygon><polygon fill="#6b67e9" points="840.89 708.25 840.89 759.13 882.86 783.37 882.86 732.48 840.89 708.25"></polygon><polygon fill="#423eac" points="674.76 556.19 623.01 382.54 638.75 373.45 690.5 547.1 674.76 556.19"></polygon><polygon fill="#423eaf" points="387.46 752.74 439.22 488.65 423.48 497.73 371.73 761.82 387.46 752.74"></polygon><polygon fill="#6b67e9" points="371.73 761.82 355.99 752.74 407.74 488.65 423.48 497.73 371.73 761.82"></polygon><polygon fill="#6b66e7" points="674.76 556.19 659.03 547.1 607.27 373.45 623.01 382.54 674.76 556.19"></polygon><polygon fill="#423eac" points="418.92 464.63 418.92 515.51 669.54 370.82 669.54 319.94 418.92 464.63"></polygon><polygon fill="#6b67e9" points="376.96 440.4 376.96 491.28 418.92 515.51 418.92 464.63 376.96 440.4"></polygon><polygon fill="#ccd1f6" points="883.18 772.02 308.48 440.22 308.48 425.68 883.18 757.48 883.18 772.02"></polygon><polygon fill="#b9bee4" points="883.18 757.48 1201.96 573.44 1201.96 587.98 883.18 772.02 883.18 757.48"></polygon><polygon fill="#efeff3" points="308.47 425.68 627.25 241.63 1201.95 573.44 883.18 757.48 308.47 425.68"></polygon><path d="M503.47,329.83l-60.35,34.84,98.34,56.77-89.87,51.89c-5.12,2.95-1,5.34,9.25,5.34h59l60.35-34.84L640.58,409Z" style="mix-blend-mode:multiply" fill="url(#m)"></path><path d="M964.27,513.74a9.6,9.6,0,0,0-2.68-.85,19.24,19.24,0,0,0-3.55-.35,5.29,5.29,0,0,0-2.32.35l-3.3,1.56-60.08,34.64a8.45,8.45,0,0,0-3.56.59.87.87,0,0,0-.37.37h0c-5.23,1.92-26.72,15.86-26.72,15.86-.31.18-.26.43.21.7a7.62,7.62,0,0,0,2.2.69,15.78,15.78,0,0,0,2.91.29,4.32,4.32,0,0,0,1.9-.29c4.14-1,29-11.64,34.73-14.76.64-.36.54-.87-.42-1.43L956,520.64l8.64-6.14h0C964.88,514.29,964.77,514,964.27,513.74Z" style="mix-blend-mode:multiply" fill="url(#p)"></path><path fill="url(#b)" d="M955,510.59a4.05,4.05,0,0,0-1.4-1.47,1.37,1.37,0,0,0-1.4-.14l-9,4.3,3.58,6.19,8.23-5.65a1.4,1.4,0,0,0,.58-1.28A4.14,4.14,0,0,0,955,510.59Z"></path><path fill="url(#q)" d="M946.75,515.35a5.11,5.11,0,0,0-1.79-1.89,1.8,1.8,0,0,0-1.79-.18l-54.8,31.64,3.58,6.19,54.8-31.64a1.78,1.78,0,0,0,.74-1.63A5.22,5.22,0,0,0,946.75,515.35Z"></path><path d="M890.83,549.18l1.12,1.93,54.8-31.64a1.78,1.78,0,0,0,.74-1.63,3.05,3.05,0,0,0,0-.52l-55.1,31.77C891.78,549.1,891.28,549.13,890.83,549.18Z" style="mix-blend-mode:multiply" fill="url(#r)"></path><path fill="#f6f6fb" d="M887.63,546.56a1.79,1.79,0,0,1,.74-1.64,1.75,1.75,0,0,1,1.79.18,5.55,5.55,0,0,1,2.53,4.37,1.54,1.54,0,0,1-2.53,1.46,5.15,5.15,0,0,1-1.79-1.88A5.29,5.29,0,0,1,887.63,546.56Z"></path><path fill="#a1a1ff" d="M942.43,514.92a1.78,1.78,0,0,1,.74-1.64,1.8,1.8,0,0,1,1.79.18,5.11,5.11,0,0,1,1.79,1.89,5.22,5.22,0,0,1,.74,2.49A1.54,1.54,0,0,1,945,519.3a5.26,5.26,0,0,1-1.79-1.89A5.15,5.15,0,0,1,942.43,514.92Z"></path><path fill="url(#s)" d="M945.49,516.07a1.56,1.56,0,0,0-.53-.55.53.53,0,0,0-.53-.06l-54.8,31.64,1.06,1.83,54.8-31.64a.53.53,0,0,0,.22-.48A1.62,1.62,0,0,0,945.49,516.07Z"></path><path fill="url(#s)" d="M945.49,516.07a1.56,1.56,0,0,0-.53-.55.53.53,0,0,0-.53-.06l-54.8,31.64,1.06,1.83,54.8-31.64a.53.53,0,0,0,.22-.48A1.62,1.62,0,0,0,945.49,516.07Z"></path><path fill="url(#t)" d="M917.71,532.11a1.51,1.51,0,0,0-.53-.56.52.52,0,0,0-.53,0l-27,15.6,1.06,1.83,27-15.6a.52.52,0,0,0,.22-.48A1.47,1.47,0,0,0,917.71,532.11Z"></path><path fill="url(#u)" d="M893.47,546.07a6.83,6.83,0,0,0-2.33-2.46,2.32,2.32,0,0,0-2.32-.23c-5.74,3.16-24.82,15.57-28.53,19.08l1.31,2,1.08,2.14c4.9-1.47,25.18-11.79,30.79-15.17a2.32,2.32,0,0,0,1-2.13A6.76,6.76,0,0,0,893.47,546.07Z"></path><path fill="#5652cc" d="M859.9,563.48a1,1,0,0,1,1.7-1,3.42,3.42,0,0,1,1.2,1.27,3.5,3.5,0,0,1,.5,1.68,1,1,0,0,1-1.7,1,3.78,3.78,0,0,1-1.7-2.95Z"></path><path fill="url(#v)" d="M892.21,544.43c4-2.3,19.61-12.32,19.61-12.32,0-.66-.52-1.43-1.25-1.29-1.78,1-18.91,10.64-21.29,11.93s-5.71,3.63-5.38,4.18S890.2,545.6,892.21,544.43Z"></path><path d="M972.83,519.35a2.89,2.89,0,0,0-1.51.39l-1.7,1-.32-.19a.52.52,0,0,0-.51,0l-6,3.45a.56.56,0,0,0-.21.17l-.28.4L889,569l-3.56,5.52,9.31-2.92,70.47-40.69a.54.54,0,0,0,.51,0l6-3.46a.58.58,0,0,0,.19-.16l.43-.61,2.23-1.29a3.27,3.27,0,0,0-1.72-6Z" style="mix-blend-mode:multiply" fill="url(#w)"></path><path fill="url(#x)" d="M967.57,518.22a3,3,0,0,0-1.52.38l-2.13,1.24a2.27,2.27,0,0,1,.59.25,5.85,5.85,0,0,1,2.64,4.57,2.39,2.39,0,0,1-.18.94l2.31-1.33a3.32,3.32,0,0,0,1.55-2.78A3.26,3.26,0,0,0,967.57,518.22Z"></path><path fill="url(#y)" d="M883,569.28a1.89,1.89,0,0,1,.86,1.48c0,.33-.15.54-.36.59l6-.87,1.27-1.81-1.27-3.28-2.54-1.47-4.58,5.36A.54.54,0,0,1,883,569.28Z"></path><path fill="url(#z)" d="M883,569.28a.54.54,0,0,0-.67,0l-.07.08-2.12,2.48,3.3-.48h.06c.21-.05.36-.26.36-.59A1.89,1.89,0,0,0,883,569.28Z"></path><path fill="#ced3f8" d="M957.85,528.59a1.58,1.58,0,0,1-.58-.67l-1-2.66a1,1,0,0,1,.1-.82l1-1.41a.52.52,0,0,1,.67-.16l2.08,1.2a1.52,1.52,0,0,1,.57.68l1,2.66a1,1,0,0,1-.1.82l-1,1.41a.53.53,0,0,1-.68.15Z"></path><polygon fill="#5652cc" points="961.51 527.8 890.73 568.67 889.46 565.39 960.24 524.52 961.51 527.8"></polygon><polygon fill="#362e94" points="960.24 529.61 889.46 570.48 890.73 568.67 961.51 527.8 960.24 529.61"></polygon><polygon fill="#807dfb" points="960.24 524.52 889.46 565.39 886.92 563.92 957.7 523.05 960.24 524.52"></polygon><path fill="url(#A)" d="M967.71,523.93l-1-2.66a1.51,1.51,0,0,0-.58-.67L964,519.4a.5.5,0,0,0-.5,0s-6,3.45-6,3.45a.55.55,0,0,1,.47,0l2.08,1.2a1.52,1.52,0,0,1,.57.68l1,2.66a1,1,0,0,1-.1.82l-1,1.41a.57.57,0,0,1-.14.13l6-3.44a.58.58,0,0,0,.19-.16l1-1.41A1,1,0,0,0,967.71,523.93Z"></path><path d="M961.34,529.27a.4.4,0,0,0,.13-.13l1-1.41a1,1,0,0,0,.09-.83l-1-2.66a1.55,1.55,0,0,0-.57-.67l-2.08-1.2a.55.55,0,0,0-.47,0l-.43.25a.54.54,0,0,1,.48,0l2.07,1.2a1.64,1.64,0,0,1,.58.67l1,2.66a1,1,0,0,1-.1.82l-1,1.42a.86.86,0,0,1-.14.13Z" style="mix-blend-mode:multiply" fill="url(#c)"></path><path d="M962.24,528.75a.4.4,0,0,0,.13-.13l1-1.41a1,1,0,0,0,.1-.82l-1-2.67a1.55,1.55,0,0,0-.57-.67l-2.08-1.2a.55.55,0,0,0-.47,0l-.43.25a.52.52,0,0,1,.47,0l2.08,1.2a1.64,1.64,0,0,1,.58.67l1,2.66a1,1,0,0,1-.1.83l-1,1.41a.86.86,0,0,1-.14.13Z" style="mix-blend-mode:multiply" fill="url(#B)"></path><path d="M963.13,528.23a.35.35,0,0,0,.14-.13l1-1.41a1,1,0,0,0,.1-.82l-1-2.66a1.48,1.48,0,0,0-.58-.68l-2.07-1.19a.52.52,0,0,0-.47,0l-.43.25a.52.52,0,0,1,.47,0l2.08,1.2a1.64,1.64,0,0,1,.58.67l1,2.66a1,1,0,0,1-.1.83l-1,1.41a.57.57,0,0,1-.14.13Z" style="mix-blend-mode:multiply" fill="url(#C)"></path><path d="M1005.33,661.77,949.44,629.5c-2-1.14-5.42-1-7.7.32l-.82.47,54.52,31.48c2,1.14,1.72,3.13-.56,4.45l-57.44,33.07a9,9,0,0,1-4.45,1.08h9.91a9,9,0,0,0,4.43-1.08l57.45-33.07C1007.06,664.9,1007.3,662.91,1005.33,661.77Z" style="mix-blend-mode:multiply" fill="url(#D)"></path><path fill="#807dfb" d="M883,666.7l46.33,26.75c2.28,1.31,5.73,1.46,7.7.32l59-34.08c2-1.14,1.73-3.13-.55-4.45L949.18,628.5c-2.28-1.32-5.73-1.46-7.7-.32l-59,34.07C880.48,663.39,880.73,665.38,883,666.7Z"></path><polygon fill="#fff" points="927.58 636.2 982.17 667.71 994.63 660.52 940.04 629 927.58 636.2"></polygon><path fill="url(#E)" d="M883,666.7l46.33,26.75c2.28,1.31,5.73,1.46,7.7.32l59-34.08a2.23,2.23,0,0,0,1.33-2.1h0v5.91h0a2.24,2.24,0,0,1-1.33,2l-59,34.08c-2,1.14-5.42,1-7.7-.32L883,672.54c-1.31-.75-1.94-1.73-1.88-2.64v-5.62A3.24,3.24,0,0,0,883,666.7Z"></path><polygon fill="#ced3f8" points="982.17 667.71 982.17 669.74 994.63 662.55 994.63 660.52 982.17 667.71"></polygon><path d="M955.77,678.53l-6.7-3.87a2.44,2.44,0,0,0-2.17,0l-6.7,3.87a.67.67,0,0,0,0,1.26l5.11,3v1.17h2.57a2.26,2.26,0,0,0,1.2-.25l6.69-3.86A.67.67,0,0,0,955.77,678.53Z" style="mix-blend-mode:multiply" fill="url(#d)"></path><path fill="#e8ecf7" d="M937.67,678.21l6.7,3.87a2.44,2.44,0,0,0,2.17,0l6.7-3.87a.67.67,0,0,0,0-1.26l-6.7-3.86a2.37,2.37,0,0,0-2.17,0l-6.7,3.86A.67.67,0,0,0,937.67,678.21Z"></path><path fill="url(#e)" d="M953.24,678.21l-6.7,3.87a2.44,2.44,0,0,1-2.17,0l-6.7-3.87a.76.76,0,0,1-.45-.63v1.58a.77.77,0,0,0,.45.63l6.7,3.86a2.37,2.37,0,0,0,2.17,0l6.7-3.86a.77.77,0,0,0,.45-.63v-1.58A.76.76,0,0,1,953.24,678.21Z"></path><path d="M943.55,685.59l-6.7-3.87a2.39,2.39,0,0,0-2.18,0L928,685.59a.66.66,0,0,0,0,1.25l5.11,2.95V691h2.57a2.24,2.24,0,0,0,1.19-.25l6.7-3.87A.66.66,0,0,0,943.55,685.59Z" style="mix-blend-mode:multiply" fill="url(#F)"></path><path fill="#e8ecf7" d="M925.44,685.27l6.7,3.86a2.39,2.39,0,0,0,2.18,0l6.7-3.86a.67.67,0,0,0,0-1.26l-6.7-3.87a2.46,2.46,0,0,0-2.18,0l-6.7,3.87A.67.67,0,0,0,925.44,685.27Z"></path><path fill="url(#G)" d="M941,685.27l-6.7,3.86a2.39,2.39,0,0,1-2.18,0l-6.7-3.86a.77.77,0,0,1-.45-.63v1.58a.76.76,0,0,0,.45.62l6.7,3.87a2.39,2.39,0,0,0,2.18,0l6.7-3.87a.76.76,0,0,0,.45-.62v-1.58A.77.77,0,0,1,941,685.27Z"></path><path d="M931,678.32l-6.69-3.87a2.46,2.46,0,0,0-2.18,0l-6.7,3.87a.67.67,0,0,0,0,1.26l5.11,2.95v1.18h2.57v0a2.35,2.35,0,0,0,1.2-.24l6.69-3.87A.66.66,0,0,0,931,678.32Z" style="mix-blend-mode:multiply" fill="url(#H)"></path><path fill="#e8ecf7" d="M912.86,678l6.7,3.87a2.37,2.37,0,0,0,2.17,0l6.7-3.87a.66.66,0,0,0,0-1.25l-6.7-3.87a2.37,2.37,0,0,0-2.17,0l-6.7,3.87A.66.66,0,0,0,912.86,678Z"></path><path fill="url(#I)" d="M928.43,678l-6.7,3.87a2.37,2.37,0,0,1-2.17,0l-6.7-3.87a.76.76,0,0,1-.45-.63V679a.76.76,0,0,0,.45.63l6.7,3.87a2.44,2.44,0,0,0,2.17,0l6.7-3.87a.76.76,0,0,0,.45-.63v-1.58A.76.76,0,0,1,928.43,678Z"></path><path d="M943.19,671.26l-6.7-3.86a2.39,2.39,0,0,0-2.18,0l-6.69,3.86a.67.67,0,0,0,0,1.26l5.11,3v1.18h2.57a2.34,2.34,0,0,0,1.19-.25l6.7-3.87A.67.67,0,0,0,943.19,671.26Z" style="mix-blend-mode:multiply" fill="url(#J)"></path><path fill="#e8ecf7" d="M925.08,671l6.7,3.86a2.39,2.39,0,0,0,2.18,0l6.7-3.86a.67.67,0,0,0,0-1.26l-6.7-3.87a2.39,2.39,0,0,0-2.18,0l-6.7,3.87A.67.67,0,0,0,925.08,671Z"></path><path fill="url(#K)" d="M940.66,671l-6.7,3.86a2.39,2.39,0,0,1-2.18,0l-6.7-3.86a.79.79,0,0,1-.45-.63v1.57a.76.76,0,0,0,.45.63l6.7,3.87a2.46,2.46,0,0,0,2.18,0l6.7-3.87a.76.76,0,0,0,.45-.63v-1.57A.79.79,0,0,1,940.66,671Z"></path><path d="M955.41,664.21l-6.69-3.87a2.39,2.39,0,0,0-2.18,0l-6.7,3.87a.66.66,0,0,0,0,1.25l5.11,2.95v1.18h2.57a2.26,2.26,0,0,0,1.2-.25l6.69-3.87A.66.66,0,0,0,955.41,664.21Z" style="mix-blend-mode:multiply" fill="url(#L)"></path><path fill="#e8ecf7" d="M937.31,663.89l6.7,3.86a2.37,2.37,0,0,0,2.17,0l6.7-3.86a.67.67,0,0,0,0-1.26l-6.7-3.87a2.44,2.44,0,0,0-2.17,0l-6.7,3.87A.67.67,0,0,0,937.31,663.89Z"></path><path fill="url(#M)" d="M952.88,663.89l-6.7,3.86a2.37,2.37,0,0,1-2.17,0l-6.7-3.86a.77.77,0,0,1-.45-.63v1.57a.76.76,0,0,0,.45.63l6.7,3.87a2.37,2.37,0,0,0,2.17,0l6.7-3.87a.76.76,0,0,0,.45-.63v-1.57A.77.77,0,0,1,952.88,663.89Z"></path><path d="M918.38,671.06l-6.7-3.87a2.37,2.37,0,0,0-2.17,0l-6.7,3.87a.66.66,0,0,0,0,1.25l5.11,3v1.18h2.57a2.22,2.22,0,0,0,1.19-.25l6.7-3.87A.66.66,0,0,0,918.38,671.06Z" style="mix-blend-mode:multiply" fill="url(#N)"></path><path fill="#e8ecf7" d="M900.28,670.74,907,674.6a2.39,2.39,0,0,0,2.18,0l6.7-3.86a.67.67,0,0,0,0-1.26l-6.7-3.87a2.46,2.46,0,0,0-2.18,0l-6.69,3.87A.66.66,0,0,0,900.28,670.74Z"></path><path fill="url(#O)" d="M915.85,670.74l-6.7,3.86a2.39,2.39,0,0,1-2.18,0l-6.69-3.86a.79.79,0,0,1-.46-.63v1.57a.77.77,0,0,0,.46.63l6.69,3.87a2.39,2.39,0,0,0,2.18,0l6.7-3.87a.76.76,0,0,0,.45-.63v-1.57A.77.77,0,0,1,915.85,670.74Z"></path><path d="M930.6,664l-6.69-3.87a2.39,2.39,0,0,0-2.18,0L915,664a.67.67,0,0,0,0,1.26l5.11,3v1.17h2.57a2.26,2.26,0,0,0,1.2-.25l6.69-3.86A.66.66,0,0,0,930.6,664Z" style="mix-blend-mode:multiply" fill="url(#P)"></path><path fill="#e8ecf7" d="M912.5,663.68l6.7,3.87a2.44,2.44,0,0,0,2.17,0l6.7-3.87a.67.67,0,0,0,0-1.26l-6.7-3.86a2.37,2.37,0,0,0-2.17,0l-6.7,3.86A.67.67,0,0,0,912.5,663.68Z"></path><path fill="url(#Q)" d="M928.07,663.68l-6.7,3.87a2.44,2.44,0,0,1-2.17,0l-6.7-3.87a.76.76,0,0,1-.45-.63v1.58a.79.79,0,0,0,.45.63l6.7,3.86a2.37,2.37,0,0,0,2.17,0l6.7-3.86a.79.79,0,0,0,.45-.63v-1.58A.76.76,0,0,1,928.07,663.68Z"></path><path d="M942.83,656.94l-6.7-3.87a2.46,2.46,0,0,0-2.18,0l-6.69,3.87a.67.67,0,0,0,0,1.26l5.11,2.95v1.17h2.57a2.24,2.24,0,0,0,1.19-.25l6.7-3.86A.67.67,0,0,0,942.83,656.94Z" style="mix-blend-mode:multiply" fill="url(#R)"></path><path fill="#e8ecf7" d="M924.72,656.62l6.7,3.87a2.39,2.39,0,0,0,2.18,0l6.7-3.87c.6-.35.6-.91,0-1.25l-6.7-3.87a2.39,2.39,0,0,0-2.18,0l-6.7,3.87C924.12,655.71,924.12,656.27,924.72,656.62Z"></path><path fill="url(#S)" d="M940.3,656.62l-6.7,3.87a2.39,2.39,0,0,1-2.18,0l-6.7-3.87a.76.76,0,0,1-.45-.63v1.58a.77.77,0,0,0,.45.63l6.7,3.86a2.39,2.39,0,0,0,2.18,0l6.7-3.86a.77.77,0,0,0,.45-.63V656A.76.76,0,0,1,940.3,656.62Z"></path><path d="M905.8,663.79l-6.7-3.87a2.46,2.46,0,0,0-2.18,0l-6.7,3.87a.67.67,0,0,0,0,1.26l5.11,3v1.17h2.57a2.26,2.26,0,0,0,1.2-.25l6.7-3.86A.67.67,0,0,0,905.8,663.79Z" style="mix-blend-mode:multiply" fill="url(#T)"></path><path fill="#e8ecf7" d="M887.69,663.47l6.7,3.87a2.39,2.39,0,0,0,2.18,0l6.69-3.87c.6-.35.6-.91,0-1.25l-6.69-3.87a2.39,2.39,0,0,0-2.18,0l-6.7,3.87C887.09,662.56,887.09,663.12,887.69,663.47Z"></path><path fill="url(#U)" d="M903.26,663.47l-6.69,3.87a2.39,2.39,0,0,1-2.18,0l-6.7-3.87a.76.76,0,0,1-.45-.63v1.58a.77.77,0,0,0,.45.63l6.7,3.86a2.39,2.39,0,0,0,2.18,0l6.69-3.86a.77.77,0,0,0,.45-.63v-1.58A.76.76,0,0,1,903.26,663.47Z"></path><path d="M918,656.73l-6.7-3.86a2.37,2.37,0,0,0-2.17,0l-6.7,3.86a.67.67,0,0,0,0,1.26l5.11,3v1.18h2.57a2.32,2.32,0,0,0,1.19-.25L918,658A.67.67,0,0,0,918,656.73Z" style="mix-blend-mode:multiply" fill="url(#V)"></path><path fill="#e8ecf7" d="M899.92,656.41l6.69,3.87a2.39,2.39,0,0,0,2.18,0l6.7-3.87a.66.66,0,0,0,0-1.25l-6.7-3.87a2.39,2.39,0,0,0-2.18,0l-6.69,3.87A.66.66,0,0,0,899.92,656.41Z"></path><path fill="url(#W)" d="M915.49,656.41l-6.7,3.87a2.39,2.39,0,0,1-2.18,0l-6.69-3.87a.77.77,0,0,1-.46-.62v1.57a.77.77,0,0,0,.46.63l6.69,3.87a2.46,2.46,0,0,0,2.18,0l6.7-3.87a.76.76,0,0,0,.45-.63v-1.57A.76.76,0,0,1,915.49,656.41Z"></path><path d="M930.24,649.68l-6.69-3.87a2.39,2.39,0,0,0-2.18,0l-6.7,3.87a.66.66,0,0,0,0,1.25l5.11,3v1.18h2.57a2.35,2.35,0,0,0,1.2-.25l6.69-3.87A.66.66,0,0,0,930.24,649.68Z" style="mix-blend-mode:multiply" fill="url(#X)"></path><path fill="#e8ecf7" d="M912.14,649.36l6.7,3.86a2.37,2.37,0,0,0,2.17,0l6.7-3.86a.67.67,0,0,0,0-1.26l-6.7-3.87a2.44,2.44,0,0,0-2.17,0l-6.7,3.87A.67.67,0,0,0,912.14,649.36Z"></path><path fill="url(#Y)" d="M927.71,649.36l-6.7,3.86a2.37,2.37,0,0,1-2.17,0l-6.7-3.86a.77.77,0,0,1-.45-.63v1.57a.76.76,0,0,0,.45.63l6.7,3.87a2.37,2.37,0,0,0,2.17,0l6.7-3.87a.76.76,0,0,0,.45-.63v-1.57A.77.77,0,0,1,927.71,649.36Z"></path><path d="M968,671.47l-6.7-3.86a2.39,2.39,0,0,0-2.18,0l-6.7,3.86a.67.67,0,0,0,0,1.26l5.11,2.95v1.18h2.57v0a2.35,2.35,0,0,0,1.2-.24l6.7-3.87A.67.67,0,0,0,968,671.47Z" style="mix-blend-mode:multiply" fill="url(#Z)"></path><path fill="#ffaf6d" d="M949.89,671.15l6.7,3.87a2.39,2.39,0,0,0,2.18,0l6.69-3.87a.66.66,0,0,0,0-1.25L958.77,666a2.39,2.39,0,0,0-2.18,0l-6.7,3.87A.66.66,0,0,0,949.89,671.15Z"></path><path fill="url(#aa)" d="M965.46,671.15,958.77,675a2.39,2.39,0,0,1-2.18,0l-6.7-3.87a.76.76,0,0,1-.45-.63v1.58a.76.76,0,0,0,.45.63l6.7,3.87a2.46,2.46,0,0,0,2.18,0l6.69-3.87a.76.76,0,0,0,.45-.63v-1.58A.76.76,0,0,1,965.46,671.15Z"></path><path d="M977.09,666.39l-3.49-2a2.39,2.39,0,0,0-2.18,0l-3.47,2a.67.67,0,0,0,0,1.26l1.91,1.1v1.18h2.57v0a2.2,2.2,0,0,0,1.19-.24l3.47-2A.66.66,0,0,0,977.09,666.39Z" style="mix-blend-mode:multiply" fill="url(#ab)"></path><path fill="#e8ecf7" d="M961.93,664.2l6.7,3.87a2.37,2.37,0,0,0,2.17,0l3.5-2a.67.67,0,0,0,0-1.26l-6.7-3.86a2.37,2.37,0,0,0-2.17,0l-3.5,2A.66.66,0,0,0,961.93,664.2Z"></path><path fill="url(#f)" d="M961.93,664.2l6.7,3.87a2.37,2.37,0,0,0,2.17,0l3.5-2a.76.76,0,0,0,.45-.63V667a.77.77,0,0,1-.45.63l-3.5,2a2.44,2.44,0,0,1-2.17,0l-6.7-3.87a.76.76,0,0,1-.45-.63v-1.58A.76.76,0,0,0,961.93,664.2Z"></path><path d="M964.37,659.12l-3.5-2a2.39,2.39,0,0,0-2.18,0l-3.47,2a.67.67,0,0,0,0,1.26l1.91,1.1v1.18h2.57a2.26,2.26,0,0,0,1.2-.25l3.47-2A.67.67,0,0,0,964.37,659.12Z" style="mix-blend-mode:multiply" fill="url(#ac)"></path><path fill="#e8ecf7" d="M949.35,656.94,956,660.8a2.39,2.39,0,0,0,2.18,0l3.5-2a.67.67,0,0,0,0-1.26l-6.7-3.87a2.39,2.39,0,0,0-2.18,0l-3.49,2A.66.66,0,0,0,949.35,656.94Z"></path><path fill="url(#ad)" d="M949.35,656.94,956,660.8a2.39,2.39,0,0,0,2.18,0l3.5-2a.79.79,0,0,0,.45-.63v1.57a.76.76,0,0,1-.45.63l-3.5,2a2.39,2.39,0,0,1-2.18,0l-6.69-3.87a.75.75,0,0,1-.46-.62v-1.58A.77.77,0,0,0,949.35,656.94Z"></path><path d="M951.78,651.85l-3.5-2a2.37,2.37,0,0,0-2.17,0l-3.47,2a.67.67,0,0,0,0,1.26l1.91,1.1v1.18h2.57v0a2.22,2.22,0,0,0,1.19-.25l3.47-2A.67.67,0,0,0,951.78,651.85Z" style="mix-blend-mode:multiply" fill="url(#ae)"></path><path fill="#e8ecf7" d="M936.76,649.67l6.7,3.87a2.39,2.39,0,0,0,2.18,0l3.49-2a.67.67,0,0,0,0-1.26l-6.69-3.86a2.39,2.39,0,0,0-2.18,0l-3.5,2A.66.66,0,0,0,936.76,649.67Z"></path><path fill="url(#af)" d="M936.76,649.67l6.7,3.87a2.39,2.39,0,0,0,2.18,0l3.49-2a.76.76,0,0,0,.45-.63v1.58a.79.79,0,0,1-.45.63l-3.49,2a2.39,2.39,0,0,1-2.18,0l-6.7-3.86a.77.77,0,0,1-.45-.63V649A.76.76,0,0,0,936.76,649.67Z"></path><path d="M939.2,644.59l-3.5-2a2.39,2.39,0,0,0-2.18,0l-3.47,2a.67.67,0,0,0,0,1.26l1.91,1.1v1.18h2.57a2.26,2.26,0,0,0,1.2-.25l3.47-2A.67.67,0,0,0,939.2,644.59Z" style="mix-blend-mode:multiply" fill="url(#ag)"></path><path fill="#e8ecf7" d="M924.18,642.41l6.69,3.86a2.39,2.39,0,0,0,2.18,0l3.5-2a.66.66,0,0,0,0-1.25l-6.7-3.87a2.39,2.39,0,0,0-2.18,0l-3.49,2A.67.67,0,0,0,924.18,642.41Z"></path><path fill="url(#ah)" d="M924.18,642.41l6.69,3.86a2.39,2.39,0,0,0,2.18,0l3.5-2a.76.76,0,0,0,.45-.62v1.57a.76.76,0,0,1-.45.63l-3.5,2a2.39,2.39,0,0,1-2.18,0L924.18,644a.76.76,0,0,1-.45-.63v-1.57A.77.77,0,0,0,924.18,642.41Z"></path><polygon fill="#ced3f8" points="972.67 650.37 971.45 650.37 968.81 651.9 968.81 652.6 970.03 652.6 972.67 651.08 972.67 650.37"></polygon><polygon fill="#ced3f8" points="968.51 647.98 968.51 648.68 965.88 650.21 964.65 650.21 964.65 649.5 967.29 647.98 968.51 647.98"></polygon><polygon fill="#ced3f8" points="968.51 652.77 967.29 652.77 964.65 654.29 964.65 655 965.88 655 968.51 653.48 968.51 652.77"></polygon><polygon fill="#ced3f8" points="972.67 650.19 972.67 649.48 970.03 647.96 968.81 647.96 968.81 648.66 971.45 650.19 972.67 650.19"></polygon><polygon fill="#ced3f8" points="968.51 652.59 968.51 651.88 965.88 650.36 964.65 650.36 964.65 651.06 967.29 652.59 968.51 652.59"></polygon><polygon fill="#ced3f8" points="980.45 654.87 979.23 654.87 976.59 656.39 976.59 657.1 977.81 657.1 980.45 655.57 980.45 654.87"></polygon><polygon fill="#ced3f8" points="976.3 652.47 976.3 653.17 973.66 654.7 972.43 654.7 972.43 653.99 975.07 652.47 976.3 652.47"></polygon><polygon fill="#ced3f8" points="976.3 657.26 975.07 657.26 972.43 658.79 972.43 659.49 973.66 659.49 976.3 657.97 976.3 657.26"></polygon><polygon fill="#ced3f8" points="972.14 654.87 970.92 654.87 968.28 656.39 968.28 657.1 969.5 657.1 972.14 655.57 972.14 654.87"></polygon><polygon fill="#ced3f8" points="980.45 654.68 980.45 653.98 977.81 652.45 976.59 652.45 976.59 653.16 979.23 654.68 980.45 654.68"></polygon><polygon fill="#ced3f8" points="972.14 659.48 970.92 659.48 968.28 657.95 968.28 657.25 969.5 657.25 972.14 658.77 972.14 659.48"></polygon><polygon fill="#ced3f8" points="976.3 657.08 976.3 656.37 973.66 654.85 972.43 654.85 972.43 655.55 975.07 657.08 976.3 657.08"></polygon><polygon fill="#ced3f8" points="987.52 658.77 986.3 658.77 983.66 660.29 983.66 661 984.88 661 987.52 659.48 987.52 658.77"></polygon><polygon fill="#ced3f8" points="983.37 661.17 982.15 661.17 979.51 662.69 979.51 663.4 980.73 663.4 983.37 661.87 983.37 661.17"></polygon><polygon fill="#ced3f8" points="987.52 658.58 987.52 657.88 984.88 656.36 983.66 656.36 983.66 657.06 986.3 658.58 987.52 658.58"></polygon><g style="mix-blend-mode:multiply"><path fill="#dae0f5" d="M923.52 647.8l-5 2.91-.72-.41 4.42-2.55-1.14-.65.62-.37zM932.64 658.19l-.63.36-3.62-2.09.49-.28 4 0a5.71 5.71 0 001.13-.07 2.06 2.06 0 00.65-.23c.27-.15.38-.32.34-.51s-.23-.39-.57-.59a3.32 3.32 0 00-1.84-.43l-.06-.52a4.75 4.75 0 012.6.62c.53.3.82.62.88.94s-.12.62-.55.87a3.16 3.16 0 01-.94.34 7.5 7.5 0 01-1.48.09l-3 0zM946.71 664.13c0 .3-.19.56-.59.79a2.62 2.62 0 01-1 .33 3.79 3.79 0 01-1.2 0 4.22 4.22 0 01-1.25-.49 3.48 3.48 0 01-.87-.69 1.3 1.3 0 01-.37-.73l.9-.14a1.09 1.09 0 00.27.61 2.89 2.89 0 001.82 1 1.64 1.64 0 001-.2c.28-.16.39-.35.34-.55s-.29-.44-.7-.68l-.41-.23.51-.29 2.82-.17-2.43-1.4.63-.36 3.32 1.92L949 663l-2.94.18C946.49 663.53 946.71 663.83 946.71 664.13zM908.8 657.81l-.95-.56-1.24.72-.7-.4 1.24-.72-2.8-1.62.5-.29 5.87-.41.78.45-5.65.41 1.94 1.12 1.09-.63.68.39-1.1.63 1 .55zM921.94 663.76c.07.35-.13.67-.6.94a3 3 0 01-1 .34 3.51 3.51 0 01-1.2 0 4.11 4.11 0 01-1.26-.49 3.18 3.18 0 01-.86-.69 1.33 1.33 0 01-.38-.73l.9-.14a1.06 1.06 0 00.27.61 2.49 2.49 0 00.71.58 2.64 2.64 0 001.12.37 1.64 1.64 0 001-.2c.3-.18.42-.38.34-.6s-.39-.49-.94-.82l-1.15-.66 2.9-1.36 2.85 1.64-.63.36-2.24-1.29-1.52.72.56.32C921.48 663 921.88 663.41 921.94 663.76zM934.49 670.75a.74.74 0 01.08.67 1.3 1.3 0 01-.58.59 2.69 2.69 0 01-1.07.34 3.72 3.72 0 01-1.2 0 3.79 3.79 0 01-1.11-.41c-.67-.4-1-.82-.91-1.29s.51-.92 1.31-1.39a5.53 5.53 0 011.73-.65 4.87 4.87 0 011.74 0 4.54 4.54 0 011.55.54 3.1 3.1 0 01.62.45 1.34 1.34 0 01.34.45l-.83.16a1.58 1.58 0 00-.73-.69 3.19 3.19 0 00-1.72-.43 3.81 3.81 0 00-1.86.56 1 1 0 00-.17.11 3.09 3.09 0 011.09.05 3.74 3.74 0 011 .4A2 2 0 01934.49 670.75zm-2.25 1.1a1.83 1.83 0 001-.23c.3-.17.43-.37.4-.59s-.23-.43-.58-.63a2.31 2.31 0 00-.73-.28 2.45 2.45 0 00-.76 0 1.84 1.84 0 00-.65.2.73.73 0 00-.34.36.45.45 0 00.06.44 1.28 1.28 0 00.51.45A2.25 2.25 0 00932.24 671.85zM900.05 662.48l-.49.28L893 664.21l-.76-.44 6.41-1.39-2.3-1.33-.9.52-.7-.4 1.53-.88zM909.63 671.33a.93.93 0 01-.51.56 2.45 2.45 0 01-1 .32 3.9 3.9 0 01-1.21-.11 5.14 5.14 0 01-1.25-.51 2.86 2.86 0 01-.87-.71.81.81 0 01-.18-.7 1.05 1.05 0 01.54-.6 2.4 2.4 0 011-.3 3.44 3.44 0 011.13.11.61.61 0 01-.08-.56 1 1 0 01.46-.48 2.29 2.29 0 011-.28 3.27 3.27 0 011.11.09 3.93 3.93 0 011.11.45 2.52 2.52 0 01.8.65.76.76 0 01.17.65 1 1 0 01-.5.55 2.07 2.07 0 01-.83.26 2.92 2.92 0 01-1-.05A.76.76 0 01909.63 671.33zm-2.22.32a1.59 1.59 0 001-.19c.28-.16.39-.35.32-.58a1.47 1.47 0 00-.7-.68 3 3 0 00-1.18-.4 1.63 1.63 0 00-1 .18c-.28.17-.39.36-.33.59a1.36 1.36 0 00.68.68A2.84 2.84 0 00907.41 671.65zm1.77-3a1.5 1.5 0 00-.89.17q-.37.22-.3.51c0 .2.25.39.59.59a2.59 2.59 0 001 .36 1.5 1.5 0 00.89-.17c.25-.15.35-.32.29-.52a1.21 1.21 0 00-.6-.6A2.42 2.42 0 00909.18 668.61zM924.12 677.07c-.07.46-.51.92-1.31 1.39a5.53 5.53 0 01-1.73.65 4.87 4.87 0 01-1.74 0 4.54 4.54 0 01-1.55-.54 3.1 3.1 0 01-.62-.45 1.34 1.34 0 01-.34-.45l.83-.16a1.61 1.61 0 00.74.69 3.07 3.07 0 001.71.43 3.81 3.81 0 001.86-.56l.18-.1a3.35 3.35 0 01-1.09-.06 3.68 3.68 0 01-1-.4 2 2 0 01-.7-.62.68.68 0 01-.07-.66 1.21 1.21 0 01.58-.59 2.7 2.7 0 011.07-.35 3.68 3.68 0 011.19 0 3.51 3.51 0 011.11.4C923.88 676.18 924.19 676.6 924.12 677.07zm-2.65.49a2.51 2.51 0 00.77 0 1.42 1.42 0 00.64-.2.71.71 0 00.35-.36.51.51 0 00-.06-.44 1.33 1.33 0 00-.52-.45 2.22 2.22 0 00-1.07-.31 1.78 1.78 0 00-1 .23c-.3.17-.44.37-.4.59s.22.43.57.63A2.31 2.31 0 00921.47 677.56zM930.05 685.34a1.06 1.06 0 01.16-.94 3.23 3.23 0 011.12-.95 5.79 5.79 0 011.65-.65 5 5 0 011.62-.09 3.46 3.46 0 011.36.44 1.54 1.54 0 01.75.78 1 1 0 01-.16.94 3.19 3.19 0 01-1.11 1 5.79 5.79 0 01-1.65.65 5 5 0 01-1.62.09 3.62 3.62 0 01-1.36-.43A1.63 1.63 0 01930.05 685.34zm2.87.69a4.45 4.45 0 001.8-.62c.63-.37 1-.71 1.07-1s-.06-.62-.47-.85a2.39 2.39 0 00-1.47-.28 4.45 4.45 0 00-1.8.62c-.63.37-1 .71-1.08 1s.07.61.48.85A2.47 2.47 0 00932.92 686zM931.64 643.75l-1.2-.69-1.17.68-.55-.32 1.17-.68-1.19-.69.52-.3 1.19.69 1.18-.68.55.32-1.18.68 1.2.69zM955.23 658.48v-1h-1.66v-.45h1.66v-1H956v1h1.67v.45H956v1zM942.23 649.15l2.27 1.32-.7.4-2.27-1.31z"></path><path fill="#c4cae9" d="M957.27,668.65l3.79,2.19-.66.39L956.61,669Zm-2,1.16,3.79,2.19-.67.39-3.79-2.19Z"></path><path fill="#dae0f5" d="M966.85 663.37l-.7.41 3.36 1.94.7-.41zm2.2.67a1 1 0 001 0 .29.29 0 000-.55 1.08 1.08 0 00-1 0C968.78 663.64 968.78 663.89 969.05 664zm-1.76 1a1.08 1.08 0 00-1 0 .29.29 0 000 .55 1 1 0 001 0A.29.29 0 00967.29 665.06zM945.19 678.44a8.42 8.42 0 01-2.14-.14l.16-.26a6.25 6.25 0 001.9.06 3 3 0 001.07-.3c.07 0 .1-.08.07-.11a.29.29 0 00-.11-.11l-.57-.26a.71.71 0 01-.37-.46c0-.18.07-.35.34-.5a1.91 1.91 0 01.81-.22 1.79 1.79 0 011 .25.83.83 0 01.48.72c0 .29-.22.56-.66.82A4.34 4.34 0 01945.19 678.44z"></path></g><rect width="151.41" height="93.04" x="610.67" y="287.23" style="mix-blend-mode:multiply" fill="url(#g)"></rect><rect width="151.41" height="93.04" x="572.56" y="265.22" style="mix-blend-mode:multiply" fill="url(#ai)"></rect><polygon fill="#20196f" points="628.7 301.43 551.41 346.06 551.41 223.13 628.7 178.51 628.7 301.43"></polygon><path fill="#ced3f8" d="M564.57,221.4c1.89,4.68-1.54,107.42-1.54,109.87l68.54-39.57c0-2.45,3.25-105,1.53-109.87Z"></path><path fill="#e8ecf7" d="M570.49,222.13C568.23,225.56,569,329.56,569,332l68.54-39.58c0-2.44-1.58-106.75,1.54-109.87Z"></path><path fill="#f6f6fb" d="M574.27,224.62c-2.25,3.43-1.54,107.43-1.54,109.88l68.54-39.58c0-2.44-1.58-106.75,1.54-109.87Z"></path><polygon fill="#362e94" points="572.56 358.26 548.13 344.16 548.13 221.24 572.56 235.34 572.56 358.26"></polygon><polygon fill="#20196f" points="649.85 313.64 572.56 358.26 572.56 235.34 649.85 190.72 649.85 313.64"></polygon><path fill="#20196f" d="M563.62,256.15c-4.69-2.72-8.5-9.31-8.5-14.74a7.36,7.36,0,0,1,1.08-4.16c-2.6.18-4.36,2.37-4.36,6.06,0,5.42,3.81,12,8.5,14.73,3.2,1.84,6,1.41,7.43-.75A7.43,7.43,0,0,1,563.62,256.15Z"></path><polygon fill="#ced3f8" points="555.88 262.97 564.81 268.13 564.81 319.9 555.88 314.75 555.88 262.97"></polygon><polygon fill="#423eaf" points="646.56 188.82 572.56 231.55 554.69 221.24 628.7 178.51 625.42 176.62 548.13 221.24 572.56 235.34 649.84 190.72 646.56 188.82"></polygon><path fill="#bbc0e6" d="M564.57,221.4l61.86-35.72a10.46,10.46,0,0,0-2.56-7L557.42,217.1a12.69,12.69,0,0,1,2.48,7.15l5.14,3A28.94,28.94,0,0,0,564.57,221.4Z"></path><path fill="#0e0d47" d="M556.2,237.25a7.36,7.36,0,0,0-1.08,4.16c0,3.88,2,8.36,4.78,11.59V238.17A7.09,7.09,0,0,0,556.2,237.25Z"></path><path fill="#a5abcc" d="M563.62,256.15a10.48,10.48,0,0,0,1.42.66V242.74a16.19,16.19,0,0,0-4.7-4.35l-.44-.22V253A15.59,15.59,0,0,0,563.62,256.15Z"></path><path fill="#bbc0e6" d="M567.77,257.29a7.36,7.36,0,0,0,1.08-4.16A18.34,18.34,0,0,0,565,242.74v14.07A6.47,6.47,0,0,0,567.77,257.29Z"></path><polygon fill="#c85a2b" points="666.81 323.43 589.52 368.06 589.52 245.13 666.81 200.51 666.81 323.43"></polygon><path fill="#ced3f8" d="M602.67,243.4c1.9,4.68-1.53,107.42-1.53,109.87l68.54-39.57c0-2.45,3.25-105,1.53-109.87Z"></path><path fill="#e8ecf7" d="M608.6,244.14c-2.26,3.42-1.54,107.42-1.54,109.87l68.54-39.57c0-2.45-1.58-106.76,1.54-109.88Z"></path><path fill="#f6f6fb" d="M612.38,246.62c-2.25,3.43-1.54,107.43-1.54,109.88l68.54-39.57c0-2.45-1.58-106.76,1.54-109.88Z"></path><polygon fill="#fb944b" points="610.67 380.26 586.24 366.16 586.24 243.24 610.67 257.34 610.67 380.26"></polygon><polygon fill="#e57139" points="687.95 335.64 610.67 380.26 610.67 257.34 687.95 212.72 687.95 335.64"></polygon><path fill="#e57139" d="M601.73,278.15c-4.69-2.72-8.5-9.31-8.5-14.74a7.36,7.36,0,0,1,1.08-4.16c-2.6.18-4.36,2.37-4.36,6.06,0,5.42,3.81,12,8.5,14.73,3.2,1.84,6,1.41,7.43-.75A7.35,7.35,0,0,1,601.73,278.15Z"></path><polygon fill="#f6f6fb" points="593.99 284.97 602.92 290.13 602.92 341.9 593.99 336.75 593.99 284.97"></polygon><polygon fill="#ffaf6d" points="684.67 210.83 610.67 253.55 592.8 243.24 666.81 200.51 663.53 198.62 586.24 243.24 610.67 257.34 687.95 212.72 684.67 210.83"></polygon><path fill="#c5cced" d="M602.67,243.4l61.86-35.72a10.46,10.46,0,0,0-2.55-7L595.53,239.1a12.72,12.72,0,0,1,2.48,7.15l5.14,3A27.82,27.82,0,0,0,602.67,243.4Z"></path><path fill="#c85a2b" d="M594.31,259.25a7.36,7.36,0,0,0-1.08,4.16c0,3.88,1.95,8.36,4.78,11.59V260.17A7.11,7.11,0,0,0,594.31,259.25Z"></path><path fill="#a5abcc" d="M601.73,278.15a10.48,10.48,0,0,0,1.42.66V264.74a16.19,16.19,0,0,0-4.7-4.35l-.44-.22V275A15.36,15.36,0,0,0,601.73,278.15Z"></path><path fill="#bbc0e6" d="M605.88,279.29a7.36,7.36,0,0,0,1.08-4.16,18.44,18.44,0,0,0-3.81-10.39v14.07A6.47,6.47,0,0,0,605.88,279.29Z"></path><polygon points="1086.84 523.02 1060.45 523.02 1143.52 570.98 1019.29 642.71 1045.67 642.71 1169.91 570.98 1086.84 523.02" style="mix-blend-mode:multiply" fill="url(#aj)"></polygon><polygon fill="#4141aa" points="1060.45 520.79 936.22 592.51 1019.28 640.48 1143.52 568.75 1060.45 520.79"></polygon><polygon fill="#ced3f8" points="941.29 593.16 941.29 582.4 1017.35 626.31 1017.35 637.08 941.29 593.16"></polygon><polygon fill="#4141aa" points="1060.45 507.79 936.22 579.51 1019.29 627.47 1143.52 555.75 1060.45 507.79"></polygon><polygon fill="#5555c6" points="1019.29 627.47 936.22 579.51 936.22 581.75 1017.35 628.59 1017.35 639.36 936.22 592.51 936.22 594.75 1019.29 642.71 1019.29 627.47"></polygon><polygon points="1016.09 533.4 980.58 553.9 1063.65 601.86 1099.16 581.36 1016.09 533.4" style="mix-blend-mode:screen" fill="#c85a2b"></polygon><polygon fill="#1e1c6b" points="1143.52 555.75 1019.29 627.47 1019.29 642.71 1143.52 570.98 1143.52 555.75"></polygon><polygon points="1118.18 570.38 1107.22 576.71 1107.22 591.94 1118.18 585.61 1118.18 570.38" style="mix-blend-mode:screen" fill="#72290f"></polygon><polygon points="1044.63 612.84 1055.59 606.52 1055.59 621.75 1044.63 628.08 1044.63 612.84" style="mix-blend-mode:screen" fill="#72290f"></polygon><polygon points="1042.39 598.9 1031.43 605.23 1044.63 612.84 1055.59 606.52 1042.39 598.9" style="mix-blend-mode:screen" fill="#72290f"></polygon><polygon points="1104.99 562.76 1094.03 569.09 1107.22 576.71 1118.18 570.38 1104.99 562.76" style="mix-blend-mode:screen" fill="#72290f"></polygon><polygon fill="#d0d4f6" points="1034.02 559.08 1025.05 564.26 1045.71 576.18 1054.68 571 1034.02 559.08"></polygon><polygon points="1099.16 581.36 1063.65 601.86 1063.65 617.1 1099.16 596.59 1099.16 581.36" style="mix-blend-mode:screen" fill="#72290f"></polygon><path d="M1119.56,541.92l-35.66,20.32,16.21,9.36-65.61,37.88-.6.35-1.36-.79-.25.14v1.58l-.61.35-4,2.32c-1.67,1-.32,1.75,3,1.75h9.91l102.94-59.43Z" style="mix-blend-mode:multiply" fill="url(#ak)"></path><polygon fill="#ced3f8" points="1027.65 610.17 952.25 566.64 952.25 555.7 1027.65 599.23 1027.65 610.17"></polygon><polygon fill="#6b67e9" points="1021.8 610.06 1024.63 608.43 1028.97 610.93 1026.15 612.57 1021.8 610.06"></polygon><path fill="#6b67e9" d="M946.6,566.64l71.17,41.09,2.83-1.63L949.42,565Zm5.65-3.26L949.42,565l2.83,1.63Z"></path><polygon fill="#807dfb" points="1018.98 592.83 1121.21 533.81 1048.83 492.02 946.6 551.04 1018.98 592.83"></polygon><polygon fill="#423eaf" points="1018.98 594.4 1121.21 535.38 1121.21 533.81 1018.98 592.83 1018.98 594.4"></polygon><polygon fill="#6b67e9" points="1020.6 595.33 1122.82 536.31 1121.21 535.38 1018.98 594.4 1020.6 595.33"></polygon><path fill="#5652cc" d="M1021.8,597.43l-.6-.35-2.82-1.63-.61-.35v-1.57L946.6,552.44V551l71.78,41.44.6.35v1.57l1.62.93v-1.57l.6.35,4,2.33a6.69,6.69,0,0,1,3,5.24v10c0,1.92-1.36,2.71-3,1.74l-4-2.32-.6-.35v-1.58l-1.62-.93v1.58l-.6-.35L946.6,568v-1.39l71.17,41.09v-1.57l.61.35,2.82,1.63.6.35v1.57l3.43,2c1,.58,1.82.11,1.82-1V601a4,4,0,0,0-1.82-3.15l-3.43-2Z"></path><polygon fill="#807dfb" points="1025.23 596.44 1127.46 537.42 1122.82 534.74 1020.6 593.76 1025.23 596.44"></polygon><path fill="url(#al)" d="M1028.26,611.69v-10a6.69,6.69,0,0,0-3-5.24l102.23-59a6.68,6.68,0,0,1,3,5.24v10a2.06,2.06,0,0,1-1,2h0L1027.44,613.6h0A2.14,2.14,0,0,0,1028.26,611.69Z"></path><polygon fill="#807dfb" points="1017.77 606.16 1020.6 604.53 1024.63 606.86 1021.8 608.49 1017.77 606.16"></polygon><polygon fill="#362e93" points="1021.8 595.86 1023.17 596.64 1021.8 597.43 1021.8 595.86"></polygon><polygon fill="#423eaf" points="1021.8 608.49 1024.63 606.86 1024.63 608.43 1021.8 610.06 1021.8 608.49"></polygon><polygon fill="#362e93" points="1018.98 608.25 1020.34 609.04 1018.98 609.83 1018.98 608.25"></polygon><path fill="#fb944b" d="M997.36,603.91c.14,1.53.83,5.74,1.16,7.52,5.43-8.41,9.78-12.23,15.22-15.45l-8.6-5c-5.42,3.12-11.45,9.89-15.22,15.45A36.76,36.76,0,0,1,997.36,603.91Z"></path><path d="M1001.29,593.74l8.47,4.89a42.31,42.31,0,0,1,4-2.65l-8.6-5A29.5,29.5,0,0,0,1001.29,593.74Z" style="mix-blend-mode:multiply" fill="#dae0f5"></path><path d="M814.58,565.82l74.12,42.79c3.93,2.27,3.44,6.23-1.1,8.85L815.68,659c-4.53,2.62-11.4,2.9-15.33.64l-74.12-42.8c-3.92-2.27-3.43-6.23,1.1-8.85l71.92-41.52C803.79,563.83,810.65,563.55,814.58,565.82Z" style="mix-blend-mode:multiply" fill="url(#am)"></path><path fill="#ffaf6d" d="M812.05,564.32l74.12,42.79c3.93,2.27,3.44,6.23-1.1,8.85l-71.92,41.52c-4.53,2.62-11.4,2.91-15.33.64l-74.11-42.79c-3.93-2.27-3.44-6.24,1.1-8.85L796.72,565C801.26,562.33,808.12,562.05,812.05,564.32Z"></path><path fill="url(#an)" d="M888.82,610.88c0,1.76-1.23,3.63-3.75,5.08l-71.92,41.52c-4.53,2.62-11.4,2.91-15.33.64l-74.11-42.79a4.56,4.56,0,0,1-2.65-3.82h0V613h0a4.56,4.56,0,0,0,2.65,3.79l74.11,42.8c3.93,2.26,10.8,2,15.33-.64l71.92-41.52c2.51-1.45,3.78-3.31,3.75-5.07h0v-1.51Z"></path><path d="M832.47,600.14s-1.22,4.52-3.77,6l-24,13.87-1.21-.83s-5.68,3-12.72,5.86c13.51,0,15.52-.93,18.08-2.2,15-6.68,21.59-10.28,28.89-16.5C839.38,604.81,832.47,600.14,832.47,600.14Z" style="mix-blend-mode:multiply" fill="url(#ao)"></path><path fill="#fff" d="M828.68,593c2.39,1.38,3.75,2.81,3.79,4.14s-1.48,2.79-4.11,3.75c-10.78,4.22-17,8-28.58,16.68-5,4-13.25,5.58-18.28,2.68l-5.86-3.38a7,7,0,0,1-3.74-6,8.46,8.46,0,0,1,3.54-6.79c11-8.93,18.42-13,28.79-16.93,5-1.8,13.56-.47,18.6,2.43Z"></path><path fill="url(#ap)" d="M828.36,600.92c-10.78,4.22-17,8-28.58,16.68-5,4-13.25,5.58-18.28,2.68l-5.86-3.38a7,7,0,0,1-3.74-6v3a4.68,4.68,0,0,0,0,.53v.1h0c.15,1.78,1.39,3.54,3.74,4.9l5.86,3.38c5,2.91,13.19,2.91,18.23,0l29-16.72c2.55-1.47,3.8-3.41,3.77-5.33h0v-3.63C832.52,598.63,831,600,828.36,600.92Z"></path><path fill="#b9bee4" d="M809.86,597.42c-1.15-.66-1.19-1.62-.05-2a6.06,6.06,0,0,1,4.18.67c1,.58,1.11,1.31,0,1.7A5.77,5.77,0,0,1,809.86,597.42Z"></path><polygon points="1093.29 530.73 1080.22 523.18 1067 528.41 1077.21 534.31 1023.93 565.07 1026.26 565.07 1028.85 563.58 1036.39 563.58 1093.29 530.73" style="mix-blend-mode:multiply" fill="url(#aq)"></polygon><polygon fill="#dae0f5" points="1045.93 507.74 1083.42 529.38 1023.93 563.73 986.44 542.09 1045.93 507.74"></polygon><polygon fill="#ced3f8" points="1023.93 558.93 1023.93 562.23 1080.21 529.74 1080.21 526.44 1023.93 558.93"></polygon><polygon fill="#f1f1f6" points="989.03 538.78 989.03 542.09 1023.93 562.23 1023.93 558.93 989.03 538.78"></polygon><polygon fill="#e8ecf7" points="1045.93 503.09 1083.42 524.74 1023.93 559.08 986.44 537.44 1045.93 503.09"></polygon><polygon fill="#ffaf6d" points="1015.83 520.47 1053.32 542.11 1023.93 559.08 986.44 537.44 1015.83 520.47"></polygon><polygon fill="#a5abcc" points="1083.42 526.08 1083.42 524.74 1023.93 559.08 1023.93 560.42 1083.42 526.08"></polygon><polygon fill="#a5abcc" points="1023.93 563.73 1023.93 565.07 1083.42 530.73 1083.42 530.73 1083.42 530.73 1083.42 529.38 1023.93 563.73"></polygon><polygon fill="#ced3f8" points="1023.93 559.08 986.44 537.44 986.44 538.78 1023.93 560.42 1023.93 559.08"></polygon><polygon fill="#ced3f8" points="1023.93 563.73 986.44 542.09 986.44 543.43 1023.93 565.07 1023.93 563.73"></polygon><polygon points="1023.93 562.23 1026.52 562.23 1083.42 529.38 1080.56 527.73 1080.21 527.93 1080.21 529.74 1023.93 562.23" style="mix-blend-mode:multiply" fill="url(#ar)"></polygon><rect width="3.26" height=".95" x="1047.24" y="507.75" style="mix-blend-mode:multiply" fill="url(#h)"></rect><path fill="url(#i)" d="M1046.35,507.3a2.2,2.2,0,0,1,2,0,.61.61,0,0,1,0,1.16,2.2,2.2,0,0,1-2,0A.61.61,0,0,1,1046.35,507.3Z"></path><path fill="url(#j)" d="M1047.87,508.64a6.54,6.54,0,0,1,2.84-4.53,2.26,2.26,0,0,1,1.12-.35,1.12,1.12,0,0,1,.53.12,1.73,1.73,0,0,1,.63,1.54,5,5,0,0,1-.29,1.58l1.06.61a6.38,6.38,0,0,0,.44-2.19,2.53,2.53,0,0,0-4.09-2.36,7.7,7.7,0,0,0-3.45,5.54A2.36,2.36,0,0,0,1047.87,508.64Z"></path><rect width="3.26" height=".95" x="1053.88" y="511.58" style="mix-blend-mode:multiply" fill="url(#as)"></rect><path fill="url(#at)" d="M1053,511.14a2.2,2.2,0,0,1,2,0c.56.32.56.83,0,1.15a2.2,2.2,0,0,1-2,0A.61.61,0,0,1,1053,511.14Z"></path><path fill="url(#au)" d="M1054.51,512.47a6.56,6.56,0,0,1,2.84-4.53,2.36,2.36,0,0,1,1.12-.35,1,1,0,0,1,.53.13,1.7,1.7,0,0,1,.63,1.54,5,5,0,0,1-.29,1.57l1.06.62a6.42,6.42,0,0,0,.44-2.19,2.53,2.53,0,0,0-4.09-2.36,7.68,7.68,0,0,0-3.45,5.53A2.36,2.36,0,0,0,1054.51,512.47Z"></path><rect width="3.26" height=".95" x="1060.52" y="515.42" style="mix-blend-mode:multiply" fill="url(#av)"></rect><path fill="url(#aw)" d="M1059.63,515a2.2,2.2,0,0,1,2,0,.61.61,0,0,1,0,1.16,2.2,2.2,0,0,1-2,0A.61.61,0,0,1,1059.63,515Z"></path><path fill="url(#ax)" d="M1061.15,516.31a6.52,6.52,0,0,1,2.84-4.53,2.28,2.28,0,0,1,1.12-.36,1.12,1.12,0,0,1,.53.13,1.71,1.71,0,0,1,.63,1.54,5.09,5.09,0,0,1-.29,1.58l1.06.61a6.42,6.42,0,0,0,.44-2.19,2.53,2.53,0,0,0-4.09-2.36,7.64,7.64,0,0,0-3.44,5.53A2.22,2.22,0,0,0,1061.15,516.31Z"></path><rect width="3.26" height=".95" x="1067.16" y="519.25" style="mix-blend-mode:multiply" fill="url(#ay)"></rect><path fill="url(#az)" d="M1066.27,518.8a2.2,2.2,0,0,1,2,0,.61.61,0,0,1,0,1.16,2.2,2.2,0,0,1-2,0A.61.61,0,0,1,1066.27,518.8Z"></path><path fill="url(#aA)" d="M1067.79,520.14a6.56,6.56,0,0,1,2.84-4.53,2.36,2.36,0,0,1,1.12-.35,1,1,0,0,1,.53.13,1.7,1.7,0,0,1,.63,1.54,5,5,0,0,1-.29,1.57l1.06.62a6.42,6.42,0,0,0,.44-2.19,2.53,2.53,0,0,0-4.09-2.36,7.67,7.67,0,0,0-3.44,5.53A2.32,2.32,0,0,0,1067.79,520.14Z"></path><rect width="3.26" height=".95" x="1073.8" y="523.09" style="mix-blend-mode:multiply" fill="url(#aB)"></rect><path fill="url(#aC)" d="M1072.91,522.64a2.22,2.22,0,0,1,2,0,.61.61,0,0,1,0,1.15,2.22,2.22,0,0,1-2,0A.61.61,0,0,1,1072.91,522.64Z"></path><path fill="url(#aD)" d="M1074.43,524a6.59,6.59,0,0,1,2.84-4.54,2.36,2.36,0,0,1,1.13-.35,1,1,0,0,1,.52.13,1.7,1.7,0,0,1,.63,1.54,5.09,5.09,0,0,1-.29,1.58l1.07.61a6.65,6.65,0,0,0,.43-2.19,2.53,2.53,0,0,0-4.09-2.36,7.67,7.67,0,0,0-3.44,5.53A2.32,2.32,0,0,0,1074.43,524Z"></path><path d="M912.41,492h148.5L910.35,405.08,789.93,474.24c-5.39,3.11-5.39,8.21,0,11.32,0,0,57.52,33.19,57.79,33.33L838.94,522H853a26.8,26.8,0,0,0,13.52-3.56Z" style="mix-blend-mode:multiply" fill="url(#aE)"></path><path fill="#f6f6fb" d="M775.66,402.73c5.4-3.11,14.22-3.11,19.62,0l110.48,63.79c5.39,3.12,5.39,8.21,0,11.33l-57,32.92c-5.39,3.11-14.22,3.11-19.61,0L718.64,447c-5.39-3.12-5.39-8.21,0-11.33Z"></path><path fill="url(#aF)" d="M718.64,447l110.49,63.79c5.39,3.11,14.22,3.11,19.61,0l57-32.92c2.59-1.5,3.92-3.45,4-5.42,0,0,0,8.68,0,8.68,0,2.06-1.34,4.12-4,5.68l-57,32.92c-5.39,3.12-14.22,3.12-19.61,0L718.64,455.92c-2.8-1.62-4.13-3.77-4-5.9v-8.46C714.72,443.53,716.05,445.48,718.64,447Z"></path><path d="M835.92,435.86H784c.23,1.85,1.55,3.67,4,5.08l60.88,35.14-.44.95-10.48,6h58.82l10.48-6Z" style="mix-blend-mode:multiply" fill="url(#aG)"></path><path fill="#ced3f8" d="M774.51,424.64a94.16,94.16,0,0,0,4.44-30l7.85-4.53c0,2,0,5.06-.27,8.91l63.7,36.77c0,6.73,0,26.89-12.33,47.25l-71.28-41.15Z"></path><polygon fill="#c6b4bb" points="778.95 394.66 850.23 435.81 858.08 431.28 786.8 390.13 778.95 394.66"></polygon><path fill="#bbc0e6" d="M837.9,483.06c12.32-20.36,12.33-40.52,12.33-47.25l7.85-4.53a105.27,105.27,0,0,1-9.7,45.74Z"></path><path d="M846.3,464.17l8.43-4.87a104.12,104.12,0,0,0,2.73-15.17l-7.92,4.58A91.26,91.26,0,0,1,846.3,464.17Z" style="mix-blend-mode:multiply" fill="#d8def3"></path><path fill="#d7ddfd" d="M944.8,456.58v35.81c0,6.23-4.42,8.77-9.81,5.66L670.74,345.49c-5.39-3.12-9.8-10.76-9.8-17V292.69Z"></path><path fill="#bbc0e6" d="M944.8,492.39V456.58l10.63-6.14v35.81c0,3.13-1.12,5.33-2.91,6.35l-10.2,5.84C943.86,497.32,944.8,495.25,944.8,492.39Z"></path><polygon fill="#fff" points="670.74 298.35 934.99 450.92 934.99 273.79 670.74 121.23 670.74 298.35"></polygon><path fill="#423eaf" d="M935,262.47,670.74,109.91c-5.39-3.12-9.8-.57-9.8,5.66V292.69l9.8,5.66V121.23L935,273.79V450.92l9.81,5.66V279.45C944.8,273.22,940.38,265.58,935,262.47Z"></path><path fill="url(#aH)" d="M681.37,103.77,945.63,256.33c5.39,3.12,9.8,10.76,9.8,17V450.44l-10.63,6.14V279.45c0-6.23-4.42-13.87-9.81-17L670.74,109.91a7.58,7.58,0,0,0-5.87-1.11l8.5-4.84C675.15,102.09,678.08,101.87,681.37,103.77Z"></path><path d="M815.19,536.57,807.31,532c3.05,1.76,3.05,4.65,0,6.41L752,570.37a12.27,12.27,0,0,1-11.1,0l7.73,4.46-2.45,1.42H754a11.73,11.73,0,0,0,5.83-1.33L815.19,543C818.24,541.22,818.24,538.33,815.19,536.57Z" style="mix-blend-mode:multiply" fill="url(#aI)"></path><path fill="url(#aJ)" d="M602.14,490.59l138.18,79.78a12.27,12.27,0,0,0,11.1,0L807.57,538a4,4,0,0,0,2.27-3s0,4.36,0,4.36a3.9,3.9,0,0,1-2.29,3.21l-56.15,32.41a12.27,12.27,0,0,1-11.1,0L602.14,495.14c-1.66-.95-2.41-2.24-2.27-3.5,0,0,0-4.25,0-4.25A3.88,3.88,0,0,0,602.14,490.59Z"></path><path fill="#1966a5" d="M599.86,487.28a.41.41,0,0,0,0,.11S599.85,487.28,599.86,487.28Z"></path><path fill="#fff" d="M751.42,570.37a12.27,12.27,0,0,1-11.1,0L602.14,490.59c-3-1.76-3-4.64,0-6.41l56.14-32.42a12.39,12.39,0,0,1,11.1,0l138.19,79.79c3,1.76,3,4.65,0,6.41Z"></path><polygon fill="#efeff3" points="664.94 463.56 657.9 459.5 664.94 455.43 671.98 459.5 664.94 463.56"></polygon><polygon fill="#efeff3" points="676.79 470.41 669.75 466.34 676.79 462.28 683.83 466.34 676.79 470.41"></polygon><polygon fill="#efeff3" points="688.64 477.25 681.61 473.19 688.64 469.12 695.68 473.19 688.64 477.25"></polygon><polygon fill="#efeff3" points="700.5 484.09 693.46 480.03 700.5 475.96 707.53 480.03 700.5 484.09"></polygon><polygon fill="#efeff3" points="712.35 490.94 705.31 486.87 712.35 482.81 719.39 486.87 712.35 490.94"></polygon><polygon fill="#efeff3" points="724.2 497.78 717.16 493.71 724.2 489.65 731.24 493.71 724.2 497.78"></polygon><polygon fill="#efeff3" points="736.06 504.62 729.02 500.56 736.06 496.49 743.09 500.56 736.06 504.62"></polygon><polygon fill="#efeff3" points="747.91 511.46 740.87 507.4 747.91 503.34 754.95 507.4 747.91 511.46"></polygon><polygon fill="#efeff3" points="759.76 518.31 752.72 514.25 759.76 510.18 766.8 514.25 759.76 518.31"></polygon><polygon fill="#efeff3" points="771.62 525.15 764.58 521.09 771.62 517.02 778.65 521.09 771.62 525.15"></polygon><polygon fill="#efeff3" points="783.47 532 776.43 527.93 783.47 523.87 790.5 527.93 783.47 532"></polygon><polygon fill="#efeff3" points="795.32 538.84 788.28 534.77 795.32 530.71 802.36 534.77 795.32 538.84"></polygon><polygon fill="#efeff3" points="658.7 473.64 646.05 466.34 653.08 462.28 665.74 469.58 658.7 473.64"></polygon><polygon fill="#efeff3" points="652.15 482.99 634.69 472.9 641.73 468.83 659.19 478.92 652.15 482.99"></polygon><polygon fill="#efeff3" points="645.12 492.61 622.83 479.75 629.87 475.68 652.15 488.55 645.12 492.61"></polygon><polygon fill="#efeff3" points="621.14 495.33 608.49 488.03 618.02 482.52 630.67 489.83 621.14 495.33"></polygon><polygon fill="#efeff3" points="638.61 505.42 625.96 498.11 635.49 492.61 648.14 499.91 638.61 505.42"></polygon><polygon fill="#efeff3" points="656.08 515.5 643.43 508.19 652.95 502.69 665.61 510 656.08 515.5"></polygon><polygon fill="#efeff3" points="716.31 550.27 703.66 542.97 713.18 537.47 725.84 544.77 716.31 550.27"></polygon><polygon fill="#efeff3" points="745.91 567.36 721.09 553.04 730.62 547.53 755.44 561.86 745.91 567.36"></polygon><polygon fill="#efeff3" points="698.87 540.21 660.89 518.28 670.42 512.78 708.4 534.7 698.87 540.21"></polygon><polygon fill="#efeff3" points="673.87 482.4 663.51 476.43 670.55 472.36 680.91 478.34 673.87 482.4"></polygon><polygon fill="#efeff3" points="667.32 491.74 656.97 485.77 664.01 481.7 674.36 487.68 667.32 491.74"></polygon><polygon fill="#efeff3" points="660.61 501.18 650.26 495.2 657.29 491.14 667.65 497.12 660.61 501.18"></polygon><polygon fill="#efeff3" points="675.78 509.94 665.42 503.96 672.46 499.9 682.82 505.88 675.78 509.94"></polygon><polygon fill="#efeff3" points="690.95 518.7 680.6 512.72 687.63 508.65 697.99 514.63 690.95 518.7"></polygon><polygon fill="#efeff3" points="706.12 527.46 695.76 521.48 702.8 517.41 713.16 523.39 706.12 527.46"></polygon><polygon fill="#efeff3" points="721.29 536.21 710.93 530.24 717.97 526.17 728.33 532.15 721.29 536.21"></polygon><polygon fill="#efeff3" points="736.46 544.97 726.11 538.99 733.14 534.93 743.5 540.91 736.46 544.97"></polygon><polygon fill="#efeff3" points="760.58 558.9 741.27 547.75 748.31 543.69 767.62 554.83 760.58 558.9"></polygon><polygon fill="#efeff3" points="682.49 500.5 672.14 494.52 679.18 490.46 689.53 496.44 682.49 500.5"></polygon><polygon fill="#efeff3" points="697.66 509.26 687.31 503.28 694.35 499.22 704.7 505.2 697.66 509.26"></polygon><polygon fill="#efeff3" points="712.83 518.02 702.48 512.04 709.52 507.98 719.87 513.96 712.83 518.02"></polygon><polygon fill="#efeff3" points="728 526.78 717.65 520.8 724.69 516.74 735.04 522.71 728 526.78"></polygon><polygon fill="#efeff3" points="743.17 535.54 732.82 529.56 739.86 525.49 750.21 531.47 743.17 535.54"></polygon><polygon fill="#efeff3" points="772.11 552.24 747.99 538.32 755.02 534.25 779.14 548.18 772.11 552.24"></polygon><polygon fill="#efeff3" points="689.04 491.16 678.68 485.18 685.72 481.12 696.08 487.1 689.04 491.16"></polygon><polygon fill="#efeff3" points="704.21 499.92 693.85 493.94 700.89 489.88 711.25 495.86 704.21 499.92"></polygon><polygon fill="#efeff3" points="719.38 508.68 709.02 502.7 716.06 498.64 726.42 504.62 719.38 508.68"></polygon><polygon fill="#efeff3" points="734.55 517.44 724.19 511.46 731.23 507.4 741.59 513.38 734.55 517.44"></polygon><polygon fill="#efeff3" points="749.72 526.2 739.36 520.22 746.4 516.16 756.75 522.13 749.72 526.2"></polygon><polygon fill="#efeff3" points="764.89 534.95 754.53 528.98 761.57 524.91 771.93 530.89 764.89 534.95"></polygon><polygon fill="#efeff3" points="783.47 545.68 769.7 537.74 776.74 533.67 790.5 541.62 783.47 545.68"></polygon><polygon fill="#ffc16b" points="705.83 182 679.6 166.86 679.6 136.58 705.83 151.72 705.83 182"></polygon><polygon fill="#807dfb" points="705.83 222.91 679.6 207.76 679.6 177.48 705.83 192.62 705.83 222.91"></polygon><polygon fill="#423eaf" points="702.77 217.61 682.66 206 682.66 182.77 702.77 194.38 702.77 217.61"></polygon><polygon fill="#807dfb" points="699.76 212.39 685.67 204.26 685.67 188 699.76 196.13 699.76 212.39"></polygon><polygon fill="#fb944b" points="705.83 274.43 679.6 259.28 679.6 289.57 705.83 304.71 705.83 274.43"></polygon><polygon fill="#f6f6fb" points="705.83 263.81 679.6 248.66 679.6 218.38 705.83 233.52 705.83 263.81"></polygon><polygon fill="#ffc16b" points="741.25 243.36 715.02 228.21 715.02 197.93 741.25 213.07 741.25 243.36"></polygon><ellipse cx="692.72" cy="159.29" fill="#fff" rx="7.93" ry="13.73" transform="rotate(-30 692.718 159.293)"></ellipse><polygon fill="#807dfb" points="734.7 170.41 721.58 162.84 715.02 172.17 721.58 189.07 734.7 196.64 741.25 187.31 734.7 170.41"></polygon><path fill="#423eaf" d="M725.45,178.19c0-1.71,1.2-2.41,2.69-1.55a6,6,0,0,1,2.68,4.65c0,1.71-1.2,2.41-2.68,1.55A5.91,5.91,0,0,1,725.45,178.19Z"></path><path fill="#fb944b" d="M721.72,216.94c0-4.09,2.88-5.75,6.42-3.7a14.17,14.17,0,0,1,6.41,11.11c0,4.09-2.87,5.75-6.41,3.7A14.2,14.2,0,0,1,721.72,216.94Z"></path><path fill="#6b67e9" d="M715,254c0-8.36,5.88-11.75,13.12-7.57s13.11,14.35,13.11,22.72-5.87,11.75-13.11,7.57S715,262.34,715,254Z"></path><polygon fill="#bbc0e6" points="692.72 228.78 695.11 238.67 702.86 243.14 696.59 244.78 698.99 254.68 692.72 245.8 686.45 247.44 688.84 240.31 682.57 231.43 690.32 235.91 692.72 228.78"></polygon><polygon fill="#ced3f8" points="917.67 431.96 924.19 435.73 924.19 277.79 917.67 274.03 917.67 431.96"></polygon><polygon fill="#ced3f8" points="905.78 425.1 912.3 428.86 912.3 270.93 905.78 267.16 905.78 425.1"></polygon><polygon fill="#a5abcc" points="912.3 306.19 905.78 302.42 905.78 282.3 912.3 286.07 912.3 306.19"></polygon><polygon fill="#a5abcc" points="924.19 375.08 917.67 371.31 917.67 351.19 924.19 354.96 924.19 375.08"></polygon><polygon fill="#dae0f5" points="770.18 245.7 850.12 291.84 850.12 339.69 770.18 293.54 770.18 245.7"></polygon><polygon fill="#807dfb" points="788.8 282.45 831.5 307.1 831.5 310.64 788.8 285.99 788.8 282.45"></polygon><polygon fill="#807dfb" points="798.62 280.56 821.68 293.87 821.68 297.42 798.62 284.1 798.62 280.56"></polygon><path d="M719.74,422.52,717,421c1.13-1.21,1-2.31-.12-3.22h0l-.12-.08c-.14-.1-.27-.2-.43-.3s-.39-.19-.58-.28l-50.66-29.24-19.25,11.11s13.23,27.62,15.57,29,7.37,2.18,14.52,2.18c2.91,0,6-.17,9-.42,1.7.67,4.67,1.08,8.67,1.08a78.62,78.62,0,0,0,14.27-1.41c4.54-.88,8.5-2.08,10.81-3.42S721.25,423.4,719.74,422.52Z" style="mix-blend-mode:multiply" fill="url(#aK)"></path><path fill="#5652cc" d="M632.24,401.32a28.65,28.65,0,0,0,13-22.41c0-4.13-1.45-7-3.8-8.38s-5.57-1.16-9.15.9a28.6,28.6,0,0,0-12.94,22.42c0,4.13,1.45,7,3.79,8.38S628.67,403.39,632.24,401.32Z"></path><path fill="url(#k)" d="M632.24,371.43a28.6,28.6,0,0,0-12.94,22.42c0,4.13,1.45,7,3.79,8.38l-5.12-3c-2.34-1.36-3.79-4.26-3.79-8.38a28.6,28.6,0,0,1,12.94-22.42c3.58-2.06,6.81-2.26,9.16-.91l5.11,3C639.05,369.17,635.82,369.37,632.24,371.43Z"></path><path fill="url(#aL)" d="M660.83,427.78,623.1,406h0c-2.76-1.6-4.47-5-4.47-9.87a33.72,33.72,0,0,1,15.25-26.41c4.21-2.43,8-2.66,10.78-1.07l37.73,21.79Z"></path><path fill="url(#aM)" d="M685,393h0l3,4.45-1.2,2.08c0,.26,0,.51,0,.78a33.72,33.72,0,0,1-15.25,26.4c-.23.14-.46.24-.69.36l-1.2,2.08-5.35-.36h0a7.71,7.71,0,0,1-3.54-1c-2.76-1.59-4.46-5-4.46-9.87a33.71,33.71,0,0,1,15.24-26.41c4.21-2.43,8-2.66,10.78-1.06A7.76,7.76,0,0,1,685,393Z"></path><path fill="#423eaf" d="M684,431.2a28.6,28.6,0,0,0,12.94-22.42c0-4.13-1.45-7-3.79-8.38s-5.58-1.15-9.15.91a28.6,28.6,0,0,0-12.94,22.42c0,4.12,1.44,7,3.79,8.38S680.41,433.26,684,431.2Z"></path><path fill="url(#aN)" d="M687.65,409.92a3.65,3.65,0,0,1,1.51,3.35,11.4,11.4,0,0,1-5.17,9,3.63,3.63,0,0,1-3.66.36,3.55,3.55,0,0,1-1.5-3.16,2,2,0,0,0,.5.43,2.69,2.69,0,0,0,2.73-.27,8.55,8.55,0,0,0,3.85-6.68,2.69,2.69,0,0,0-1.13-2.49,1.91,1.91,0,0,0-.62-.22A3.56,3.56,0,0,1,687.65,409.92Z"></path><path fill="#20196f" d="M685.91,412.91a8.55,8.55,0,0,1-3.85,6.68,2.69,2.69,0,0,1-2.73.27,2,2,0,0,1-.5-.43c0-.07,0-.12,0-.19a11.45,11.45,0,0,1,5.18-9,1.3,1.3,0,0,1,.17-.08,1.91,1.91,0,0,1,.62.22A2.69,2.69,0,0,1,685.91,412.91Z"></path><path fill="url(#aO)" d="M684,401.31a28.6,28.6,0,0,0-12.94,22.42c0,4.12,1.44,7,3.79,8.38l-5.12-3c-2.34-1.35-3.79-4.25-3.79-8.38a28.64,28.64,0,0,1,12.94-22.42c3.57-2.06,6.81-2.25,9.15-.9l5.12,2.95C690.8,399.05,687.56,399.25,684,401.31Z"></path><polygon fill="#ced3f8" points="624.81 397.41 624.81 407.62 636.18 414.18 636.18 403.97 624.81 397.41"></polygon><polygon fill="#f6f6fb" points="624.81 397.41 627.9 395.62 639.27 402.19 636.18 403.97 624.81 397.41"></polygon><path fill="#bbc0e6" d="M638.62,407.67a15.93,15.93,0,0,0,.65,4.7v0l-3.09,1.78V404l3.09-1.79v0A24.79,24.79,0,0,0,638.62,407.67Z"></path><path fill="#ffaf6d" d="M632.55,408.44c.7.4,1.26.08,1.26-.73a2.81,2.81,0,0,0-1.26-2.19c-.7-.4-1.26-.07-1.26.73A2.78,2.78,0,0,0,632.55,408.44Z"></path><path fill="#807dfb" d="M628.51,406.11c.7.4,1.26.07,1.26-.73a2.78,2.78,0,0,0-1.26-2.19c-.7-.4-1.26-.08-1.26.73A2.79,2.79,0,0,0,628.51,406.11Z"></path><path d="M434.51,1031.44c16.08,0,35.61-3.76,43.63-8.4s1.53-8.4-14.53-8.4S428,1018.4,420,1023,418.44,1031.44,434.51,1031.44Z" style="mix-blend-mode:multiply" fill="url(#l)"></path><path d="M429.27,917.77c16.08,0,35.61-3.76,43.63-8.4s1.53-8.4-14.53-8.4-35.61,3.76-43.65,8.4S413.2,917.77,429.27,917.77Z" style="mix-blend-mode:multiply" fill="url(#aP)"></path><path d="M632.67,914.8c16.08,0,35.61-3.75,43.64-8.39s1.52-8.4-14.54-8.4-35.61,3.75-43.64,8.4S616.6,914.8,632.67,914.8Z" style="mix-blend-mode:multiply" fill="url(#aQ)"></path><path d="M627.61,1030.82c16.07,0,35.6-3.75,43.63-8.39s1.52-8.4-14.54-8.4-35.6,3.75-43.64,8.4S611.54,1030.82,627.61,1030.82Z" style="mix-blend-mode:multiply" fill="url(#aR)"></path><path fill="#1f196f" d="M413.27,1019.79c0-9.28,6.51-20.55,14.55-25.19s14.54-.88,14.55,8.4-6.51,20.55-14.55,25.19S413.27,1029.07,413.27,1019.79Z"></path><path fill="#f6f6fb" d="M418.86,1016.58c0-5.73,4-12.68,9-15.54s9-.54,9,5.18-4,12.67-9,15.54S418.86,1022.29,418.86,1016.58Z"></path><path fill="#362e93" d="M413.27,1019.79c0-9.28,6.51-20.55,14.55-25.19,3.86-2.22,7.34-2.47,9.95-1.14,0,0-7.75-4.51-7.75-4.51-2.63-1.29-6.12-1.05-10,1.18-8,4.64-14.56,15.91-14.56,25.19,0,4.58,1.59,7.8,4.17,9.35.11.08,7.76,4.49,7.76,4.49C414.87,1027.59,413.27,1024.38,413.27,1019.79Z"></path><path fill="#1f196f" d="M425.91 1012.5a4.25 4.25 0 011.91-3.31c1.05-.6 1.91-.11 1.91 1.11a4.22 4.22 0 01-1.91 3.3C426.77 1014.21 425.91 1013.71 425.91 1012.5zM613.7 903.94c0-9.28 6.52-20.56 14.55-25.19s14.54-.88 14.55 8.39-6.51 20.56-14.55 25.2S613.7 913.22 613.7 903.94z"></path><path fill="#f6f6fb" d="M619.29,900.72c0-5.72,4-12.68,9-15.53s9-.54,9,5.18-4,12.67-9,15.53S619.29,906.44,619.29,900.72Z"></path><path fill="#362e93" d="M613.7,903.94c0-9.28,6.52-20.56,14.55-25.19,3.86-2.22,7.34-2.48,10-1.15,0,0-7.75-4.5-7.75-4.5-2.63-1.3-6.11-1.05-10,1.18-8,4.63-14.56,15.91-14.55,25.19,0,4.58,1.59,7.8,4.16,9.34.11.08,7.76,4.49,7.76,4.49C615.31,911.74,613.7,908.52,613.7,903.94Z"></path><path fill="#1f196f" d="M626.34 896.65a4.24 4.24 0 011.91-3.31c1-.61 1.91-.11 1.91 1.11a4.2 4.2 0 01-1.91 3.29C627.2 898.35 626.34 897.86 626.34 896.65zM607.18 1019.24c0-9.28 6.51-20.55 14.54-25.19s14.54-.88 14.55 8.39-6.51 20.56-14.55 25.2S607.18 1028.52 607.18 1019.24z"></path><path fill="#f6f6fb" d="M612.76,1016c0-5.73,4-12.69,9-15.54s9-.54,9,5.18-4,12.67-9,15.53S612.76,1021.74,612.76,1016Z"></path><path fill="#362e93" d="M607.18,1019.24c0-9.28,6.51-20.55,14.54-25.19,3.86-2.23,7.35-2.47,9.95-1.15,0,0-7.75-4.5-7.75-4.5-2.62-1.3-6.11-1-10,1.18-8,4.64-14.56,15.91-14.55,25.19,0,4.58,1.59,7.8,4.16,9.34.12.08,7.77,4.49,7.77,4.49C608.78,1027,607.18,1023.83,607.18,1019.24Z"></path><path fill="#1f196f" d="M619.81 1012a4.25 4.25 0 011.92-3.31c1-.6 1.91-.11 1.91 1.11a4.23 4.23 0 01-1.91 3.3C620.67 1013.65 619.82 1013.16 619.81 1012zM408.86 906.16c0-9.28 6.51-20.55 14.55-25.19s14.54-.88 14.55 8.39-6.51 20.56-14.55 25.2S408.86 915.44 408.86 906.16z"></path><path fill="#f6f6fb" d="M414.45,903c0-5.73,4-12.68,9-15.54s9-.54,9,5.18-4,12.67-9,15.54S414.45,908.66,414.45,903Z"></path><path fill="#362e93" d="M408.86,906.16c0-9.28,6.51-20.55,14.55-25.19,3.86-2.22,7.34-2.47,9.95-1.14,0,0-7.75-4.51-7.75-4.51-2.63-1.29-6.11-1.05-10,1.18-8,4.64-14.56,15.91-14.55,25.19,0,4.58,1.59,7.8,4.16,9.34.11.08,7.77,4.49,7.77,4.49C410.46,914,408.86,910.75,408.86,906.16Z"></path><path fill="#1f196f" d="M421.5,898.87a4.25,4.25,0,0,1,1.92-3.31c1.05-.6,1.9-.11,1.9,1.11a4.22,4.22,0,0,1-1.9,3.3C422.36,900.58,421.51,900.08,421.5,898.87Z"></path><path fill="#bbc0e6" d="M625.36,880.55l-80.43,24.89V889.65l73.82-22.54S633.83,862.31,625.36,880.55Z"></path><path fill="url(#aS)" d="M544.93,889.65l73.82-22.54s4.27-1.33,7,.16l0,0L616.66,862h0c-2.72-1.49-7-.16-7-.16L535.8,884.39Z"></path><path fill="#ced3f8" d="M418,880.55l80.43,24.89V889.65l-73.81-22.54S409.49,862.31,418,880.55Z"></path><path fill="url(#aT)" d="M498.38,889.65l-73.81-22.54s-4.27-1.33-7,.16l-.05,0,9.13-5.26h0c2.72-1.49,7-.16,7-.16l73.82,22.55Z"></path><path fill="#5652cc" d="M539.65,903.7c-5,2.87-11.48,4.3-18,4.3s-13-1.43-18-4.3-7.45-6.63-7.45-10.39V915c0,3.76,2.48,7.52,7.45,10.39s11.48,4.3,18,4.3,13-1.43,18-4.3,7.45-6.63,7.46-10.39V893.31C547.11,897.07,544.62,900.83,539.65,903.7Z"></path><path fill="#807dfb" d="M496.21,893.31c0-3.76,2.48-7.52,7.45-10.39s11.48-4.3,18-4.3,13,1.43,18,4.3,7.46,6.63,7.46,10.39-2.49,7.52-7.46,10.39-11.48,4.3-18,4.3-13-1.43-18-4.3S496.21,897.07,496.21,893.31Z"></path><path fill="#5652cc" d="M530.62,870.91a19.83,19.83,0,0,1-17.92,0c-2.48-1.43-3.72-3.3-3.72-5.18v27.58c0,1.87,1.24,3.74,3.72,5.17a19.75,19.75,0,0,0,17.92,0c2.48-1.43,3.71-3.3,3.71-5.17V865.73C534.33,867.61,533.1,869.48,530.62,870.91Z"></path><path fill="#807dfb" d="M509,865.73c0-1.87,1.24-3.74,3.71-5.17a19.85,19.85,0,0,1,17.93,0c2.48,1.43,3.71,3.3,3.71,5.17s-1.23,3.75-3.71,5.18a19.83,19.83,0,0,1-17.92,0C510.22,869.48,509,867.61,509,865.73Z"></path><path fill="#bbc0e6" d="M427.82,994.6l80.43-68V910.83l-73.82,62.69S419.35,986.14,427.82,994.6Z"></path><path fill="url(#aU)" d="M434.43,973.52l73.82-62.69-9.13-5.27-73.82,62.7s-15.07,12.61-6.61,21.07l9.13,5.27C419.35,986.14,434.43,973.52,434.43,973.52Z"></path><path fill="#ced3f8" d="M615.5,994.6l-80.44-68V910.83l73.82,62.69S624,986.14,615.5,994.6Z"></path><path fill="url(#aV)" d="M608.88,973.52l-73.82-62.69,9.13-5.27L618,968.26s15.07,12.61,6.61,21.07l-9.12,5.27C624,986.14,608.88,973.52,608.88,973.52Z"></path><path fill="url(#aW)" d="M665.54,740.69c17.39,10,17.39,26.47,0,36.51L558,839.27c-17.39,10.05-45.85,10.05-63.24,0l-117-67.55c-17.39-10-17.39-26.46,0-36.5C345.21,754,350.5,795,377.72,810l.06,0,117,67.55c17.39,10,45.85,10,63.24,0l107.52-62.07C692.82,800.48,698.13,759.51,665.54,740.69Z"></path><path fill="#6b67e9" d="M558,839.27c-17.39,10.05-45.85,10.05-63.24,0l-117-67.55c-17.4-10-17.4-26.48,0-36.52l107.51-62.07c17.39-10,45.85-10,63.24,0l117,67.55c17.39,10,17.39,26.47,0,36.51Z"></path><path fill="url(#aX)" d="M317.55,569.07c0-20.08,14.23-28.3,31.62-18.26l107.51,62.08c17.39,10,31.62,34.69,31.62,54.77V825c0,20.07-14.21,28.28-31.59,18.27C489.27,862,522.05,837,521.5,805.87c0,0,0,0,0-.06V648.49c0-20.08-14.23-44.73-31.63-54.77L382.37,531.65C355.69,515.55,317.55,531.44,317.55,569.07Z"></path><path fill="#5652cc" d="M456.68,612.89c17.39,10,31.62,34.69,31.62,54.77V825c0,20.08-14.23,28.3-31.62,18.26L349.17,781.17c-17.39-10-31.62-34.69-31.62-54.78V569.07c0-20.08,14.23-28.3,31.62-18.26Z"></path><path fill="url(#aY)" d="M442.33,433.9,563,364.21h0c0-14-8.52-30.29-19-36.36l-72.61-41.92-120.7,69.69,72.61,41.92c10.51,6.06,19,22.34,19,36.36Z"></path><path fill="url(#aZ)" d="M453.94,427.19l97.47-56.27h0c0-14-8.52-30.3-19-36.36l-23.3-13.46a8,8,0,0,0-8,0L412.94,372a3.53,3.53,0,0,0,0,6.13l22,12.69c10.51,6.07,19,22.35,19,36.36Z"></path><path fill="#bbc0e6" d="M553.77,414.33l-102.18,59c-5.12,2.95-9.26.56-9.26-5.35V433.9L563,364.21V398.3C563,404.2,558.88,411.38,553.77,414.33Z"></path><path fill="#ced3f8" d="M442.33,433.9c0-14-8.52-30.3-19-36.36l-72.61-41.92V381Z"></path><path fill="url(#ba)" d="M442.33,468V433.9L350.69,381v34.09c0,3,1.08,5.09,2.8,6h0L445,474h0C443.35,473,442.33,470.91,442.33,468Z"></path><path fill="#362e94" d="M543.4 383.32l-77.63 44.82a15.51 15.51 0 00-7 12.18v25.89l91.69-52.94V387.38C550.43 382.89 547.28 381.08 543.4 383.32zM555 387.43a4 4 0 011.82-3.15c1-.57 1.81-.11 1.81 1.05a4 4 0 01-1.81 3.14C555.86 389.05 555 388.58 555 387.43z"></path><path fill="#e57139" d="M555,379a4,4,0,0,1,1.82-3.14c1-.58,1.81-.11,1.81,1a4,4,0,0,1-1.81,3.15C555.86,380.59,555,380.12,555,379Z"></path><path fill="#6b67e9" d="M558.89,395.26l-4.07,2.35c-.74.43-1.34,0-1.34-1h0a3.23,3.23,0,0,1,1.34-2.57l4.07-2.35c.74-.43,1.35,0,1.35,1h0A3.22,3.22,0,0,1,558.89,395.26Z"></path><path fill="#362e94" d="M373.36,357.55l-13-7.51,101.37-58.53,13,7.51c4.75,2.74,4.16,7.54-1.33,10.71l-81.49,47C386.42,360,378.11,360.29,373.36,357.55Z"></path><path fill="#6b67e9" d="M495.23,479.16l77.63-44.82c3.88-2.24,3.88-5.88,0-8.12l-22.43-13-91.69,52.94,22.42,13A15.57,15.57,0,0,0,495.23,479.16Z"></path><path fill="#423eaf" d="M572.86 434.34l-77.63 44.82a15.57 15.57 0 01-14.07 0l-22.42-13v3l22.42 12.95a15.57 15.57 0 0014.07 0l77.63-44.82c1.92-1.11 2.89-2.57 2.9-4h0v-3C575.77 431.75 574.8 433.22 572.86 434.34zM575.74 430.12a.9.9 0 010 .16v-.16z"></path><path fill="url(#bb)" d="M550.43,413.27l-29.46-17-55.2,31.87a15.51,15.51,0,0,0-7,12.18v25.89Z"></path><path fill="url(#bc)" d="M537.31,420.85l-29.46-17-42.08,24.3a15.51,15.51,0,0,0-7,12.18V451l13.13,7.59,25.31,14.61,65.44-37.78Z"></path><polygon fill="url(#bd)" points="497.18 473.89 458.74 451.69 458.74 451.04 497.18 473.24 497.18 473.89"></polygon><polygon fill="#bbc0e6" points="497.18 473.89 562.62 436.12 562.62 435.46 497.18 473.24 497.18 473.89"></polygon><polygon fill="#6b67e9" points="351.32 322.23 353.74 322.33 363.29 351.73 360.36 350.04 351.32 322.23"></polygon><polygon fill="#423eaf" points="464.66 293.2 363.29 351.73 353.74 322.33 455.11 263.81 464.66 293.2"></polygon><path fill="#423eaf" d="M363.29,351.73l10.07,5.82c4.75,2.74,13.06,2.4,18.55-.77l78.65-45.41-5.9-18.17h0Z"></path><polygon fill="#807dfb" points="455.11 263.81 353.74 322.33 351.32 322.23 452.69 263.7 455.11 263.81"></polygon><path fill="#dae0f5" d="M448.82,299l-15.08-46.44L368.31,290.3l15.08,46.44h0l6.78,20.88a18.65,18.65,0,0,0,1.74-.84L455.65,320Z"></path><polygon fill="#bbc0e6" points="367.53 290.26 368.31 290.3 390.17 357.62 389.51 357.92 367.53 290.26"></polygon><polygon fill="#fff" points="433.74 252.52 368.31 290.3 367.53 290.26 432.96 252.48 433.74 252.52"></polygon><polygon points="475.14 478.67 472.46 474.14 458.74 466.21 458.74 469.2 475.14 478.67" style="mix-blend-mode:multiply" fill="#d1d7f3"></polygon><path d="M550.43,413.27h0l-29.46-17-55.2,31.87a15.51,15.51,0,0,0-7,12.18v25.89h0l13.72,7.93,91.69-52.94Z" style="mix-blend-mode:multiply" fill="url(#be)"></path><polygon points="481.06 291.51 464.11 291.51 464.66 293.2 464.66 293.2 464.66 293.2 470.56 311.37 409.2 346.79 499.69 346.79 499.69 302.27 481.06 291.51" style="mix-blend-mode:multiply" fill="url(#bf)"></polygon></g></svg>