<svg xmlns="http://www.w3.org/2000/svg" xml:space="preserve" viewBox="0 0 150 150" id="building">
  <path d="M11 11h128v128H11z" fill="#334d5c"></path>
  <path d="M62.376 37.5h25.248v75H62.376z" fill="#e1e6e9"></path>
  <path d="M48.593 65.896h13.783V112.5H48.593z" transform="rotate(-180 55.484 89.198)" fill="#d5d6db"></path>
  <path d="M37.5 74.27h11.093v38.23H37.5z" fill="#e1e6e9"></path>
  <path d="M87.624 65.896h13.783V112.5H87.624z" fill="#d5d6db"></path>
  <path d="M101.407 74.27H112.5v38.23h-11.093z" transform="rotate(-180 106.954 93.385)" fill="#e1e6e9"></path>
  <path d="M66 41.786h4v4h-4zM73 41.786h4v4h-4zM80 41.786h4v4h-4zM92.516 73.305h4v4h-4zM92.516 80.09h4v4h-4zM92.516 87.09h4v4h-4zM92.516 94.09h4v4h-4zM92.516 101.09h4v4h-4zM104.954 77.492h4v4h-4zM104.954 84.278h4v4h-4zM104.954 91.278h4v4h-4zM104.954 98.278h4v4h-4zM104.954 105.278h4v4h-4zM41.046 77.492h4v4h-4zM41.046 84.278h4v4h-4zM41.046 91.278h4v4h-4zM41.046 98.278h4v4h-4zM41.046 105.278h4v4h-4zM53.484 73.305h4v4h-4zM53.484 80.09h4v4h-4zM53.484 87.09h4v4h-4zM53.484 94.09h4v4h-4zM53.484 101.09h4v4h-4zM66 48.786h4v4h-4zM73 48.786h4v4h-4zM80 48.786h4v4h-4zM66 55.786h4v4h-4zM73 55.786h4v4h-4zM80 55.786h4v4h-4zM66 62.786h4v4h-4zM73 62.786h4v4h-4zM80 62.786h4v4h-4zM66 69.786h4v4h-4zM73 69.786h4v4h-4zM80 69.786h4v4h-4zM66 76.786h4v4h-4zM73 76.786h4v4h-4zM80 76.786h4v4h-4zM66 83.786h4v4h-4zM73 83.786h4v4h-4zM80 83.786h4v4h-4zM81 112.5H69V96.63a2 2 0 0 1 2-2h8a2 2 0 0 1 2 2v15.87z" fill="#64798a"></path>
</svg>
