<svg xmlns="http://www.w3.org/2000/svg" viewBox="0 0 64 64" id="Sale">
  <rect width="8" height="7" x="9.991" y="19.154" rx="2" ry="2" fill="#a9aed8" class="color000000 svgShape"></rect>
  <path d="M23.99182,19.14999c-1.09998,0-2,.90002-2,2v3c-.09998,.85004,.65002,1.65002,1.41998,1.91003,.2517-.43391,.7792-1.35711,1.03004-1.78003,.98318-1.95144,3.59338-2.72214,5.47997-1.61999,.12764-.23454,.04958-1.24175,.07003-1.51001-.00002-1.09998-.89999-2-2.00002-2h-4Z" fill="#a9aed8" class="color000000 svgShape"></path>
  <rect width="8" height="7" x="9.991" y="28.154" rx="2" ry="2" fill="#a9aed8" class="color000000 svgShape"></rect>
  <rect width="8" height="7" x="9.991" y="37.154" rx="2" ry="2" fill="#a9aed8" class="color000000 svgShape"></rect>
  <rect width="7" height="7" x="37.991" y="20.154" rx="2" ry="2" fill="#a9aed8" class="color000000 svgShape"></rect>
  <path d="M27.81183,52.14999c0-.54999-.45001-1-1-1H5.99182V16.14999h28v9.44c0,.56,.45001,1,1,1s1-.44,1-1v-9.44c1.10004,0,2-.88995,2-2v2c0,1.11005,.90002,2,2,2h3c1.10004,0,2-.88995,2-2v-3c0-1.09998-.89996-2-2-2h-3c-1.09998,0-2,.90002-2,2v-1c0-1.09998-.89996-2-2-2H19.99182v-2h28v25.52002c0,.56,.45001,1,1,1s1-.44,1-1V8.14999c1.10004,0,2-.88995,2-2v-2c0-1.09998-.89996-2-2-2H17.99182c-1.09998,0-2,.90002-2,2v2c0,1.11005,.90002,2,2,2v2H3.99182c-1.09998,0-2,.90002-2,2v2c0,1.11005,.90002,2,2,2V51.14999h-1c-1.29999,.01001-1.31,2,0,2H26.81183c.54999,0,1-.44,1-1Z" fill="#a9aed8" class="color000000 svgShape"></path>
  <path d="M25.32184,38.48001c-.26001-.15002-.47003-.27997-.60004-.34998l.60004,.34998Z" fill="#a9aed8" class="color000000 svgShape"></path>
  <rect width="1.998" height="1.998" x="36.598" y="36.486" transform="rotate(-59.971 37.597 37.485)" fill="#a9aed8" class="color000000 svgShape"></rect>
  <path d="M61.01184,42.92001L28.9718,24.42001c-.95996-.54999-2.17999-.21997-2.72998,.72998l-7,12.13c-.56,.95001-.22998,2.17999,.72998,2.73004l12.12006,7-7.70001,13.33997c-.17999,.31-.17999,.69,0,1s.51001,.5,.87,.5h8.08002c.35999,0,.69-.19,.87-.5l5.67999-9.83997,12.12,7c.32001,.17999,.65997,.26996,1,.26996,.69,0,1.35999-.35999,1.72998-1l7-12.13c.54999-.94995,.22003-2.17999-.72998-2.72998Zm-30.06-3.92999c-.36319,.5289-.75204,1.75391-1.56,1.69-.26867,.03832-.62793-.26263-1.01002-.42994-1.16961-.62183-2.59901-1.52249-3.80999-2.20006-1.08751-.57338-.19952-2.40165,1.00003-1.73998-.00003,0,3.46,2.01001,3.46,2.01001l1.00995-1.73004c-.96385-.58445-2.44891-1.3692-3.28998-1.89995-.47967-.34073-.79419-.65101-.62067-1.19685,.26162-.78729,.60337-1.19765,1.18065-2.2032,.14966-.27076,.49052-.84044,.65005-1.10998,0,0,.23999-.42999,.23999-.42999,.26001-.47003,.89996-.64001,1.37-.35999,.17337,.15038,4.85189,2.66017,4.71004,2.86995,.43406,.82025-.49292,1.90003-1.38003,1.36001,0,.00002-3.47003-1.99998-3.47003-1.99998l-1,1.72998c1.01973,.61122,2.21565,1.25767,3.22003,1.85999,.00526-.00006,.24329,.14547,.25995,.15001,.56395,.31002,.62951,1.06557,.24996,1.54999-.28046,.48501-.92399,1.60235-1.20992,2.08003Zm1.10999,3.27002c-.25235-.2969-.27408-.73497-.07-1.08002,0,0,4-6.92999,4-6.92999,.26001-.47003,.91003-.64001,1.37-.35999l3.46002,2c.47998,.26996,.64996,.87994,.37,1.35999l-2,3.46997-2,3.46002c-.18565,.31613-.51584,.50657-.86999,.5-.67313,.02662-1.21088-.76514-.92-1.37,.00996-.04004,.02998-.09003,.06001-.13l1.5-2.60004-1.73004-1-1.5,2.60004c-.34345,.64745-1.26723,.64115-1.66998,.08002Zm13.03003,6.07996c-.00839,.12442-.05567,.22673-.11005,.34003,0,0,0,.01001-.01001,.01001-.16672,.30694-.50864,.48364-.84998,.48999-.10489,.02391-.38214-.05961-.50001-.12999-1.17199-.66382-3.09362-1.77531-3.97996-2.30002-.66948-.31334-1.08412-.84348-.72004-1.57001,0,.00003,3.99999-6.92997,3.99999-6.92997,.66003-1.13,2.38-.13,1.73004,1l-3.5,6.06,3.46997,2c.35455,.19089,.57057,.63033,.47003,1.02997Zm10.87994-2.73999c-.01599,.06016-.03515,.13695-.08997,.17999-.26696,.44329-.88194,.61299-1.33002,.34002,0,.00001-2.59997-1.49999-2.59997-1.49999l-1,1.72998,1.72998,1c.47998,.28003,.64001,.89001,.37,1.37-.27997,.48004-.89996,.64001-1.37,.35999l-1.72998-1-1,1.73004,2.59998,1.5c.88,.47998,.48004,1.90997-.5,1.87-.27997,.14996-3.65997-2.01001-3.96997-2.13-.47003-.26001-.64001-.90997-.36005-1.37l4-6.92999c.27002-.48004,.88-.64001,1.36005-.35999l3.46997,2c.17066,.10421,.31726,.24463,.40002,.41998,.13076,.23621,.11581,.53609,.01996,.78998Z" fill="#a9aed8" class="color000000 svgShape"></path>
</svg>
