<svg xmlns="http://www.w3.org/2000/svg" viewBox="0 0 64 64" id="Businessman">
  <path fill="#807dfb" d="M46.265 19.436c.039-.726-.373-1.719-1.152-1.904-.394-.093-.753.071-.945-.355-.108-.241.073-.881.102-1.14.072-.644.109-1.332.266-1.962.293-1.17.474-2.37.518-3.576.134-3.714-1.7-6.772-5.096-8.283A19.918 19.918 0 0 0 32 .52a21.371 21.371 0 0 0-1.515.039c-1.625.097-3.361.224-4.849.944a4.42 4.42 0 0 0-.426.238c-.55.353-1.009.83-1.372 1.377-.369.554-.492.867-1.034 1.302-.479.385-.908.668-1.441.902-.473.21-.896.544-1.152 1-.526.934-.712 2.069-.756 3.128-.055 1.327.004 2.655.097 3.979.033.471.123.94.217 1.408.145.717.298 1.434.27 2.159-.009.225-.101.353-.239.434-.044.011-.09.018-.139.024-.257.029-.52.019-.773.079-.78.184-1.191 1.177-1.152 1.904l.008.139a8.44 8.44 0 0 0 .011 1.019c.041.684.179 1.36.263 2.042.186 1.512.895 2.966 2.34 3.686.302.241.501.487.611.915.868 3.376 2.557 6.098 5.299 7.971.339.23.692.448 1.065.655.444.226 1.038.492 1.807.754a6.737 6.737 0 0 0 1.54.488c.441.083.881.118 1.322.109.441.009.881-.026 1.336-.112a6.698 6.698 0 0 0 1.397-.429c.042-.018.086-.037.129-.045a14.79 14.79 0 0 0 1.809-.766c.37-.205.724-.423 1.063-.653a12.262 12.262 0 0 0 3.531-3.705c.46-.745.829-1.533 1.155-2.344.315-.786.312-1.657.862-2.337.403-.499.933-.877 1.406-1.311.853-.781 1.158-1.751 1.295-2.875.084-.682.222-1.358.263-2.042a8.44 8.44 0 0 0 .011-1.019l.006-.141zm9.127 25.488-10.127-3.843c-.763-.189-1.527-.378-2.284-.574l-.796-.196c-.222-.052-.463-.033-.855-.065-.046.176-.091.352-.144.522-.666 2.479-1.298 4.959-2.049 7.399-.894 2.891-1.899 5.748-2.904 8.606-.007.033-.02.065-.033.098-.111.32-.268.626-.424.94-.183-1.318-.405-3.041-.633-4.737-.411-3.171-.796-6.244-.796-6.349.157-.365.3-.705.457-1.037.02-.046.039-.098.065-.144.085-.202.17-.418.261-.607.052-.072.091-.163.137-.241.131-.268.3-.548.3-.894 0-.287-.117-.548-.202-.77l-.046-.098c-.02-.046-.02-.065-.052-.124a1.491 1.491 0 0 0-.111-.241l-.026-.039c-.013-.02-.046-.052-.046-.072a.67.67 0 0 0-.189-.209.88.88 0 0 0-.339-.13h-.228c-.072-.052-.163-.052-.202-.052-.313-.02-1.103-.02-2.121-.02h-.011c-1.018 0-1.807 0-2.121.02-.039 0-.131 0-.202.052h-.228c-.091.02-.215.046-.339.13a.658.658 0 0 0-.189.209c0 .02-.033.052-.046.072l-.026.039a1.531 1.531 0 0 0-.111.241c-.033.059-.033.078-.052.124l-.046.098c-.085.222-.202.483-.202.77 0 .346.17.626.3.894.046.078.085.17.137.241.091.189.176.405.261.607.026.046.046.098.065.144.157.333.3.672.457 1.037 0 .104-.385 3.178-.796 6.349-.228 1.696-.45 3.419-.633 4.737-.157-.313-.313-.62-.424-.94-.013-.033-.026-.065-.033-.098-1.005-2.858-2.01-5.716-2.904-8.606-.75-2.44-1.383-4.92-2.049-7.399-.052-.17-.098-.346-.144-.522-.391.033-.633.013-.855.065l-.796.196c-.757.196-1.52.385-2.284.574L8.608 44.924c-5.97 1.997-5.611 5.977-5.611 5.977v7.876c.548 4.796 4.254 4.704 4.254 4.704h49.498s3.706.091 4.254-4.704v-7.876s.359-3.98-5.611-5.977z" class="color2d3e50 svgShape"></path>
</svg>
