<?xml version="1.0" encoding="UTF-8"?>
<svg version="1.1" xmlns="http://www.w3.org/2000/svg" width="247" height="251">
<path d="M0 0 C81.51 0 163.02 0 247 0 C247 82.83 247 165.66 247 251 C165.49 251 83.98 251 0 251 C0 168.17 0 85.34 0 0 Z " fill="#2F82E1" transform="translate(0,0)"/>
<path d="M0 0 C81.51 0 163.02 0 247 0 C247 82.83 247 165.66 247 251 C165.49 251 83.98 251 0 251 C0 168.17 0 85.34 0 0 Z M27 6 C27.26221794 13.33018335 32.31801873 18.46666459 36.515625 24.09960938 C37.10085937 24.91365234 37.68609375 25.72769531 38.2890625 26.56640625 C38.83256348 27.29802979 39.37606445 28.02965332 39.93603516 28.78344727 C41.31240755 31.65083712 40.99652617 33.02227044 40 36 C37.75202802 38.90815706 35.31349049 41.56737657 32.8359375 44.28125 C30.79818226 46.81108242 30.79818226 46.81108242 30.81640625 49.57421875 C32.5235636 53.07304619 35.27644847 54.48768529 38.5625 56.3125 C39.17802734 56.67150391 39.79355469 57.03050781 40.42773438 57.40039062 C41.94339357 58.28158783 43.47064376 59.14279477 45 60 C44.401875 60.29519531 43.80375 60.59039062 43.1875 60.89453125 C37.46582446 63.78602085 33.19560914 66.76888581 31 73 C30.04183131 77.97889527 30.57618239 81.8832322 33.0625 86.3125 C35.73972417 90.06961292 38.54441324 92.62905023 43 94 C46.03572592 94.29050009 48.96315657 94.24790559 52 94 C51.92910156 94.84046875 51.85820313 95.6809375 51.78515625 96.546875 C52.04417847 100.71006854 53.45581518 103.67227792 55.4375 107.25 C55.97177612 108.23190308 55.97177612 108.23190308 56.5168457 109.23364258 C60.94799146 117.07647215 66.72766038 123.65730273 74 129 C74.66 129 75.32 129 76 129 C75.67 130.98 75.34 132.96 75 135 C70.38 136.65 65.76 138.3 61 140 C61 140.66 61 141.32 61 142 C59.50919922 142.15275391 59.50919922 142.15275391 57.98828125 142.30859375 C42.74484325 144.51140271 30.15734138 154.48856785 20.97265625 166.28125 C12.63766198 177.76868765 10.52776723 189.29509381 10.6015625 203.3515625 C10.59869232 204.5728183 10.59582214 205.7940741 10.59286499 207.05233765 C10.59083841 209.60862701 10.59626881 212.16493238 10.60888672 214.72119141 C10.62509951 218.64910869 10.60891829 222.57601858 10.58984375 226.50390625 C10.59182371 228.99479394 10.59566224 231.48568101 10.6015625 233.9765625 C10.59548981 235.15352692 10.58941711 236.33049133 10.5831604 237.54312134 C10.59261688 238.62540009 10.60207336 239.70767883 10.61181641 240.82275391 C10.61420319 241.77695221 10.61658997 242.73115051 10.61904907 243.71426392 C10.74476288 244.46855682 10.87047668 245.22284973 11 246 C14.91300325 248.60866883 18.20887247 248.28085745 22.74836731 248.26069641 C23.65324581 248.26452196 24.55812432 248.26834751 25.49042338 248.27228898 C28.53509651 248.28264183 31.57958185 248.27862247 34.62426758 248.2746582 C36.80214107 248.27900347 38.98001302 248.28418599 41.15788269 248.29014587 C47.08355591 248.30356851 53.00916547 248.30411081 58.93485093 248.30158257 C63.87775905 248.30051486 68.82065418 248.30539121 73.76355952 248.310188 C86.09149039 248.32193056 98.41938593 248.32105171 110.74731924 248.31463119 C120.78608676 248.30978552 130.82477366 248.3183499 140.86352539 248.33618164 C152.51975062 248.35681258 164.17591966 248.36728221 175.83216399 248.36360615 C182.00274849 248.36179122 188.17324963 248.36445025 194.34382057 248.37832069 C200.14764666 248.39087767 205.95129038 248.38897501 211.7551136 248.37590981 C213.88600984 248.37353967 216.01691882 248.3762943 218.14780045 248.38453293 C221.05564029 248.39496515 223.96286425 248.3869278 226.87068176 248.3742218 C227.71494888 248.38159609 228.55921599 248.38897037 229.42906696 248.39656812 C234.35644876 248.35124142 237.73226936 247.72912732 242 245 C244.82657232 241.72712679 245.90879625 239.7426591 246.4375 235.4375 C245.96789385 231.7477374 245.26867863 229.91687253 243 227 C242.31429932 226.65138916 241.62859863 226.30277832 240.92211914 225.94360352 C238.21935458 223.21062896 238.51659534 221.09964968 238.47129822 217.36058044 C238.47948074 216.46686234 238.48766327 215.57314423 238.49609375 214.65234375 C238.4819619 213.26264122 238.4819619 213.26264122 238.46754456 211.84486389 C238.43883497 208.87551965 238.43581622 205.90697187 238.4375 202.9375 C238.43387721 199.99313709 238.42412368 197.04936052 238.39674377 194.1051178 C238.38013569 192.27416747 238.37693535 190.44302606 238.38975525 188.61204529 C238.29043687 176.34110326 233.71430079 165.1997183 225.37890625 156.15625 C216.91449904 148.03661464 216.91449904 148.03661464 206 145 C206.04125 143.9275 206.0825 142.855 206.125 141.75 C206.28841795 138.18023177 206.28841795 138.18023177 204.9375 136.0625 C203.40238912 132.68525606 204.14317902 129.48083522 205 126 C206.00557134 123.41929543 207.08280418 120.90256625 208.2578125 118.39453125 C209.14649521 115.5273602 208.85576577 113.84763437 208 111 C206.45741392 109.45741392 205.02636265 109.87281429 202.87915039 109.87060547 C202.00476822 109.86745331 201.13038605 109.86430115 200.22950745 109.86105347 C199.27849655 109.8630777 198.32748566 109.86510193 197.34765625 109.8671875 C196.37718857 109.86623077 195.40672089 109.86527405 194.40684509 109.86428833 C192.34976131 109.86360635 190.29267538 109.86546186 188.2355957 109.86962891 C185.07954078 109.87497116 181.92362855 109.86968747 178.76757812 109.86328125 C176.77343718 109.86394214 174.77929633 109.86522353 172.78515625 109.8671875 C171.36167625 109.86415115 171.36167625 109.86415115 169.90943909 109.86105347 C169.03190475 109.86420563 168.15437042 109.86735779 167.25024414 109.87060547 C166.4760463 109.87140106 165.70184845 109.87219666 164.90419006 109.87301636 C162.91263828 109.8825523 162.91263828 109.8825523 161 111 C160.69281352 115.28485751 161.68551012 118.10889501 163.4375 122 C165.07664039 125.66121386 166.49736068 128.99982874 167 133 C166.690625 133.598125 166.38125 134.19625 166.0625 134.8125 C164.42228252 138.18941835 164.87580369 141.27411082 165 145 C163.9275 145.12375 162.855 145.2475 161.75 145.375 C158.17500312 145.75223439 158.17500312 145.75223439 156 147.125 C151.12657677 149.25712267 145.65658254 146.58861408 141.0234375 144.78515625 C138.80406705 143.88551858 136.58798552 142.97773125 134.375 142.0625 C132.69664062 141.37897461 132.69664062 141.37897461 130.984375 140.68164062 C128.90528282 139.83437334 126.82748697 138.98391251 124.75146484 138.12915039 C122.17340321 137.07116148 119.58902244 136.03083087 117 135 C116.625 132.25 116.625 132.25 117 129 C119.5625 127.0625 119.5625 127.0625 121.2265625 126.1015625 C130.29645032 120.46784364 136.4802786 109.93443683 139.58984375 99.97265625 C140.13571142 97.68310019 140.13571142 97.68310019 140 94 C141.794375 94.0928125 141.794375 94.0928125 143.625 94.1875 C149.19235832 94.16786205 152.55713398 92.24611157 156.75 88.625 C159.92831183 84.91696953 160.87153511 82.41311382 161.3125 77.5625 C160.81746207 71.91906762 158.8089999 68.51846619 154.75 64.6875 C151.20187471 61.78999044 148.52871115 61.18484535 144 61 C144.81339844 60.27167969 145.62679687 59.54335938 146.46484375 58.79296875 C150.45210395 53.98600334 149.6868203 48.25635416 149.5625 42.3125 C149.57893555 40.63124023 149.57893555 40.63124023 149.59570312 38.91601562 C149.50933649 28.99536797 147.60685701 19.77617684 140.5546875 12.42578125 C132.81191759 5.3249998 123.58766484 3.53351726 113.37524414 3.62768555 C112.47152069 3.62403488 111.56779724 3.62038422 110.63668823 3.61662292 C107.68597917 3.60859639 104.73583273 3.62205376 101.78515625 3.63671875 C99.72155253 3.63723799 97.65794832 3.63671782 95.59434509 3.63520813 C91.28832533 3.63529748 86.98249427 3.64565626 82.67651367 3.66381836 C77.15271464 3.68660429 71.62918847 3.6870276 66.10535526 3.68030071 C61.85293645 3.67696476 57.60058012 3.68358212 53.34817314 3.69342995 C51.31037154 3.69728119 49.272563 3.69843047 47.23475838 3.6968441 C44.39603442 3.69647428 41.55766495 3.70906704 38.71899414 3.7253418 C37.87587173 3.72286438 37.03274933 3.72038696 36.16407776 3.71783447 C32.26252241 3.75363113 30.32036905 3.78642063 27 6 Z " fill="#FEFEFE" transform="translate(0,0)"/>
<path d="M0 0 C1.1034375 -0.02449219 2.206875 -0.04898438 3.34375 -0.07421875 C14.95612048 -0.11510738 25.20636879 2.93498175 34.25 10.375 C43.77113317 20.11252256 45.35602926 29.5774922 45.56640625 42.6796875 C45.58718735 43.75880402 45.60796844 44.83792053 45.62937927 45.94973755 C45.69455113 49.38309611 45.7536089 52.81652853 45.8125 56.25 C45.85571601 58.58334085 45.89933127 60.91667434 45.94335938 63.25 C46.05019922 68.95825618 46.15202467 74.66658516 46.25 80.375 C48.56 81.365 50.87 82.355 53.25 83.375 C53.375 85.75 53.375 85.75 53.25 88.375 C50.86700592 90.75799408 50.38989809 90.62570069 47.15063477 90.62896729 C45.86348068 90.63742676 45.86348068 90.63742676 44.55032349 90.64605713 C43.6068808 90.64200867 42.66343811 90.63796021 41.69140625 90.63378906 C40.69946259 90.6372937 39.70751892 90.64079834 38.68551636 90.64440918 C35.39444049 90.65323848 32.10357819 90.64737307 28.8125 90.640625 C26.53328408 90.6419713 24.25406845 90.64391154 21.97485352 90.64642334 C17.19316886 90.64937623 12.41155881 90.64507163 7.62988281 90.63574219 C1.48922283 90.62434761 -4.65126233 90.63090619 -10.79191589 90.64288712 C-15.49981004 90.65010124 -20.20766249 90.64781984 -24.91555786 90.64263153 C-27.18026754 90.6412938 -29.44498096 90.64294705 -31.70968628 90.64759064 C-34.87036218 90.6526485 -38.03075177 90.64495598 -41.19140625 90.63378906 C-42.60657028 90.63986176 -42.60657028 90.63986176 -44.05032349 90.64605713 C-44.90842621 90.64041748 -45.76652893 90.63477783 -46.65063477 90.62896729 C-47.39837662 90.62821323 -48.14611847 90.62745918 -48.91651917 90.62668228 C-50.75 90.375 -50.75 90.375 -52.75 88.375 C-52.42028521 85.07785207 -52.1273161 83.7523161 -49.75 81.375 C-49.069375 81.21 -48.38875 81.045 -47.6875 80.875 C-47.048125 80.71 -46.40875 80.545 -45.75 80.375 C-44.53054493 77.93608985 -44.63185283 76.38197533 -44.63989258 73.65673828 C-44.63931351 72.67456329 -44.63873444 71.69238831 -44.63813782 70.68045044 C-44.64024765 69.61285492 -44.64235748 68.5452594 -44.64453125 67.4453125 C-44.63106243 65.18228221 -44.61603698 62.91926075 -44.59960938 60.65625 C-44.57688366 57.09051158 -44.56240939 53.5257612 -44.57495117 49.95996094 C-44.61645927 33.8817411 -44.59865608 22.70791114 -33.375 10.375 C-23.60891647 1.32869482 -12.90035096 0.01486216 0 0 Z " fill="#FCFBFC" transform="translate(184.75,149.625)"/>
<path d="M0 0 C4.71557873 5.32404051 7.13596871 12.56547638 10 19 C14.17900818 19.23643611 16.53103721 19.16665147 19.8125 16.5 C22.95833333 14 22.95833333 14 24 14 C23.56564106 25.18848721 22.64464469 36.29909418 21.5 47.4375 C21.36940186 48.72358154 21.23880371 50.00966309 21.10424805 51.3347168 C20.91342651 53.14709839 20.91342651 53.14709839 20.71875 54.99609375 C20.60466797 56.08075928 20.49058594 57.1654248 20.37304688 58.28295898 C20 61 20 61 19 64 C18.6067449 67.09327777 18.44255816 70.20104185 18.25 73.3125 C18.14751953 74.57610352 18.14751953 74.57610352 18.04296875 75.86523438 C17.72337921 81.10568335 18.09771206 84.41468425 21 89 C19.09150052 90.90849948 15.68521226 90.13059633 13.15625 90.1328125 C12.47195923 90.13376923 11.78766846 90.13472595 11.0826416 90.13571167 C9.63338123 90.1363933 8.18411782 90.13454023 6.73486328 90.13037109 C4.50937072 90.12502252 2.28407999 90.1303166 0.05859375 90.13671875 C-1.34635461 90.13605797 -2.75130285 90.1347768 -4.15625 90.1328125 C-5.44337891 90.13168457 -6.73050781 90.13055664 -8.05664062 90.12939453 C-11 90 -11 90 -12 89 C-12.09386381 87.1281906 -12.11743804 85.2528194 -12.11352539 83.37866211 C-12.11344986 82.17749252 -12.11337433 80.97632294 -12.11329651 79.73875427 C-12.10813522 78.4314888 -12.10297394 77.12422333 -12.09765625 75.77734375 C-12.09579198 74.43355868 -12.09436812 73.08977293 -12.09336853 71.74598694 C-12.08954402 68.20317723 -12.07971432 64.6604083 -12.06866455 61.11761475 C-12.05844899 57.50484773 -12.0538706 53.89207416 -12.04882812 50.27929688 C-12.03809198 43.1861812 -12.02101636 36.09309326 -12 29 C-14.64 29 -17.28 29 -20 29 C-20 49.13 -20 69.26 -20 90 C-27.59 90 -35.18 90 -43 90 C-44.56444323 88.43555677 -44.13493797 86.90477161 -44.14526367 84.73071289 C-44.15164352 83.82209 -44.15802338 82.9134671 -44.16459656 81.97731018 C-44.16570938 80.98577438 -44.1668222 79.99423859 -44.16796875 78.97265625 C-44.17296135 77.44553261 -44.17296135 77.44553261 -44.17805481 75.88755798 C-44.18313227 73.72281344 -44.18546288 71.55806103 -44.18530273 69.39331055 C-44.18747013 66.10777465 -44.20556386 62.82258493 -44.22460938 59.53710938 C-44.22754709 57.43229281 -44.22952935 55.32747465 -44.23046875 53.22265625 C-44.23765427 52.24933853 -44.24483978 51.27602081 -44.25224304 50.27320862 C-44.20115297 34.71364722 -39.41863883 23.75907617 -28.63671875 12.4453125 C-21.52388371 5.8488166 -10.07550524 -1.04524799 0 0 Z " fill="#FCFCFC" transform="translate(63,150)"/>
<path d="M0 0 C3.31467895 1.53406629 5.03944771 2.86311633 7 6 C7 6.66 7 7.32 7 8 C7.763125 8.28875 8.52625 8.5775 9.3125 8.875 C12 10 12 10 15 12 C17.0492094 12.45139459 17.0492094 12.45139459 19.1875 12.625 C20.445625 12.74875 21.70375 12.8725 23 13 C23.09987254 17.51654375 23.1719343 22.03247989 23.21972656 26.54980469 C23.23967724 28.08214534 23.26684816 29.61441152 23.30175781 31.14648438 C23.58667675 43.98459636 22.06615219 54.26228098 13 64 C4.33687457 72.06566851 -4.77069583 74.65512384 -16.3840332 74.53857422 C-22.87618113 74.26792638 -27.71405947 72.91445326 -33 69 C-33.78761719 68.41863281 -34.57523438 67.83726563 -35.38671875 67.23828125 C-43.61025266 60.53712056 -48.61660719 52.53364089 -50 42 C-50.22633188 36.97543233 -50.18943345 31.96578748 -50.125 26.9375 C-50.11494631 25.58138685 -50.1058247 24.22526645 -50.09765625 22.86914062 C-50.07424058 19.579239 -50.04144423 16.28971562 -50 13 C-48.84552368 13.00169189 -48.84552368 13.00169189 -47.66772461 13.00341797 C-23.54466048 13.26457739 -23.54466048 13.26457739 -2.5625 2.625 C-1.716875 1.75875 -0.87125 0.8925 0 0 Z " fill="#FCFBFC" transform="translate(109,52)"/>
<path d="M0 0 C11.31812151 -0.16252607 22.6359633 -0.28673935 33.95501614 -0.3626852 C39.21156101 -0.39914457 44.46730479 -0.44856103 49.72338867 -0.52807617 C54.80036805 -0.60439702 59.87657924 -0.64604513 64.95408821 -0.6641407 C66.88657785 -0.67702817 68.81902764 -0.70219524 70.75118828 -0.7401104 C89.03084145 -1.08439662 89.03084145 -1.08439662 95.49209595 5.13381958 C101.13635716 12.11915113 101.65446859 18.33146612 101.5625 27.1875 C101.59827148 28.78754883 101.59827148 28.78754883 101.63476562 30.41992188 C101.62562797 35.29029409 101.60573374 38.11461378 98.80859375 42.203125 C94.23340076 45.13023039 90.24372119 44.80916726 85 44 C79.16471846 41.27686861 76.77399844 34.5289316 74 29 C68.1959902 29.63431801 64.83881663 33.01903286 60.42578125 36.578125 C51.69713089 42.97017875 44.0728383 44.88584143 33.2878418 44.81665039 C31.19797838 44.81252071 29.1178452 44.87768832 27.02929688 44.94726562 C16.6875784 45.08159747 10.18913419 42.19744394 2 36 C3.01403705 31.28917308 5.59844646 28.31751538 8.50390625 24.53515625 C10.22399464 21.62043728 10.56042157 20.32101669 10 17 C8.60653854 14.39513803 8.60653854 14.39513803 6.6875 11.9375 C6.07261719 11.10089844 5.45773438 10.26429687 4.82421875 9.40234375 C3.66449556 7.87508516 2.48178799 6.36481011 1.26953125 4.87890625 C0 3 0 3 0 0 Z " fill="#FDFCFD" transform="translate(40,13)"/>
<path d="M0 0 C9 1.125 9 1.125 13 3.0625 C13.763125 3.42472656 14.52625 3.78695312 15.3125 4.16015625 C15.869375 4.43730469 16.42625 4.71445313 17 5 C15.67916734 7.75784967 14.19726542 10.27177646 12.5 12.8125 C10.16534735 16.48320756 8.96877841 19.77260331 8 24 C7.34 24 6.68 24 6 24 C5.99857498 24.60277267 5.99714996 25.20554535 5.99568176 25.82658386 C5.97598288 32.10498457 5.92170521 38.38241328 5.84741211 44.66040039 C5.82422668 47.00277735 5.80983514 49.34525864 5.80444336 51.68774414 C5.79515824 55.05681416 5.7541743 58.42424191 5.70703125 61.79296875 C5.7109639 62.83897751 5.71489655 63.88498627 5.71894836 64.96269226 C5.57222926 72.28732654 5.57222926 72.28732654 2.58081055 76.01293945 C1.72914307 76.66866943 0.87747559 77.32439941 0 78 C-1.94337637 80.91506455 -2.27674667 81.82971692 -2.5625 85.125 C-3 89 -3 89 -4 90 C-6.53049402 90.07313567 -9.03304837 90.09247527 -11.5625 90.0625 C-12.27341797 90.05798828 -12.98433594 90.05347656 -13.71679688 90.04882812 C-15.47790013 90.03700864 -17.23896036 90.01907263 -19 90 C-19 87 -19 87 -17 84 C-15.83287337 76.39094069 -17.57476764 68.43386136 -18.71484375 60.90576172 C-19.89228545 53.03918571 -20.83020265 45.15756972 -21.6875 37.25 C-21.81874268 36.07252197 -21.94998535 34.89504395 -22.08520508 33.68188477 C-22.75319671 27.412799 -23.14083634 21.30410306 -23 15 C-20.0280615 16.12451727 -17.66559313 17.22293791 -15 19 C-13.02 19 -11.04 19 -9 19 C-6.03 12.73 -3.06 6.46 0 0 Z " fill="#FBFAFC" transform="translate(128,150)"/>
<path d="M0 0 C2.64 0 5.28 0 8 0 C8 1.32 8 2.64 8 4 C9.3303125 4.12375 9.3303125 4.12375 10.6875 4.25 C14.57021127 5.12910444 16.30519057 6.0742069 19 9 C19.8125 12.75 19.8125 12.75 20 16 C16.625 16.1875 16.625 16.1875 13 16 C12.34 15.01 11.68 14.02 11 13 C7.87442041 12.63469768 7.87442041 12.63469768 4.375 12.8125 C3.18648437 12.83957031 1.99796875 12.86664063 0.7734375 12.89453125 C-0.14179688 12.92933594 -1.05703125 12.96414062 -2 13 C-2.38218767 14.65614657 -2.71395102 16.32457024 -3 18 C-1.12877907 19.87122093 2.18168926 19.22085593 4.6875 19.3125 C10.44257237 19.68133984 13.7976262 20.03109141 18 24 C20.70387021 28.05580531 20.64288138 31.23942272 20 36 C17.37186734 41.67676654 14.49089961 42.82436053 9 45 C8.67 45.99 8.34 46.98 8 48 C5.36 48 2.72 48 0 48 C-0.495 46.515 -0.495 46.515 -1 45 C-2.76774389 43.94522076 -2.76774389 43.94522076 -4.875 43.125 C-8.59660427 41.37758007 -10.4231538 39.9421155 -12 36 C-12 34.68 -12 33.36 -12 32 C-10.72125 31.938125 -9.4425 31.87625 -8.125 31.8125 C-7.04605469 31.76029297 -7.04605469 31.76029297 -5.9453125 31.70703125 C-5.30335938 31.80371094 -4.66140625 31.90039062 -4 32 C-3.34 32.99 -2.68 33.98 -2 35 C1.12557959 35.36530232 1.12557959 35.36530232 4.625 35.1875 C5.81351563 35.16042969 7.00203125 35.13335937 8.2265625 35.10546875 C9.59941406 35.05326172 9.59941406 35.05326172 11 35 C11 33.02 11 31.04 11 29 C9.98679688 28.98582031 8.97359375 28.97164062 7.9296875 28.95703125 C-4.26941104 28.59693829 -4.26941104 28.59693829 -7.8125 25.6875 C-10.75118733 22.07711271 -11.80282409 20.30629041 -12.5 15.6875 C-11.8340159 10.77586724 -9.85692448 8.0664287 -6 5 C-2.625 4.0625 -2.625 4.0625 0 4 C0 2.68 0 1.36 0 0 Z " fill="#3182E1" transform="translate(181,171)"/>
<path d="M0 0 C1.32 0 2.64 0 4 0 C5.024761 3.07428301 5.24089802 5.52412256 5.4375 8.75 C5.78238964 13.6824693 6.30935282 18.54157887 7 23.4375 C7.8747684 29.67751462 8.40207056 35.88191445 8.75390625 42.171875 C8.89607059 45.07620659 8.89607059 45.07620659 10 48 C10.71551586 54.62078598 11.18080679 60.32334662 7 65.8125 C6.0295269 66.90203578 5.03942823 67.97603945 4 69 C1.31446663 68.92327048 -0.42683448 68.56743898 -2.3684082 66.64526367 C-5.7267418 62.20824962 -6.63286704 58.9473649 -6 53.375 C-5.93675537 52.62573242 -5.87351074 51.87646484 -5.80834961 51.10449219 C-5.56920409 48.39934223 -5.28412991 45.70079039 -5 43 C-4.77101839 40.62250315 -4.54322875 38.24489131 -4.31640625 35.8671875 C-3.14003334 23.86479634 -1.78143376 11.92776196 0 0 Z " fill="#FAFBFB" transform="translate(94,171)"/>
<path d="M0 0 C2.64 0 5.28 0 8 0 C8.20625 0.886875 8.4125 1.77375 8.625 2.6875 C10.381158 6.91824426 12.13122425 8.56410416 16 11 C19.69383157 11.70117742 23.11631934 11.13746144 26.8125 10.5625 C30.37478258 8.01801244 30.95896929 4.11334084 32 0 C34.64 0 37.28 0 40 0 C40.63494951 5.07959608 39.34179098 8.02627809 36.53125 12.1015625 C32.38573434 17.2411559 28.66525531 19.20999779 22.0625 20 C15.83637204 20.2487342 10.97355141 19.69478097 6.25 15.4140625 C2.61152225 11.40823844 0.12088005 7.7198011 -0.125 2.1875 C-0.08375 1.465625 -0.0425 0.74375 0 0 Z " fill="#2F82E1" transform="translate(76,94)"/>
<path d="M0 0 C9.24 0 18.48 0 28 0 C26 9 26 9 24 12 C20.89850622 12.67706172 17.72921046 12.50932071 14.5625 12.5 C13.69044922 12.52835938 12.81839844 12.55671875 11.91992188 12.5859375 C9.51256361 12.59333906 7.35233455 12.5128586 5 12 C1.68952585 8.48630862 1.37078312 4.79774092 0 0 Z " fill="#FBF9FA" transform="translate(171,118)"/>
<path d="M0 0 C1.216875 0.268125 2.43375 0.53625 3.6875 0.8125 C3.76825665 3.10359597 3.82657731 5.39549267 3.875 7.6875 C3.90980469 8.96367188 3.94460937 10.23984375 3.98046875 11.5546875 C3.88378906 12.62976563 3.78710938 13.70484375 3.6875 14.8125 C0.41951451 16.991157 -0.52155038 17.53458564 -4.3125 16.8125 C-7.57443386 13.7680284 -9.04790072 12.10903646 -9.9375 7.75 C-8.73910756 2.11755552 -5.7431004 -0.71406222 0 0 Z " fill="#F3F1F7" transform="translate(48.3125,69.1875)"/>
<path d="M0 0 C1.98366324 2.44143169 1.89181125 3.35310534 1.75 6.4375 C1.15255802 10.25241596 0.76296411 10.87403277 -2.25 13.625 C-5.375 15 -5.375 15 -8.375 14 C-9.796875 11.85546875 -9.796875 11.85546875 -11.125 9.1875 C-11.57359375 8.31480469 -12.0221875 7.44210938 -12.484375 6.54296875 C-13.45169318 3.78102078 -13.5531974 2.65094415 -12.375 0 C-7.78900333 -2.67516472 -4.69394402 -1.97639748 0 0 Z " fill="#FAF8F9" transform="translate(84.375,145)"/>
<path d="M0 0 C1.6792238 0.63437344 3.35008418 1.29289322 5 2 C4.41892368 5.7602985 3.34800504 8.53035032 1.4375 11.8125 C0.98246094 12.60269531 0.52742188 13.39289063 0.05859375 14.20703125 C-0.29074219 14.79871094 -0.64007813 15.39039063 -1 16 C-3.9719385 14.87548273 -6.33440687 13.77706209 -9 12 C-10.01595336 9.00986455 -10.27854111 6.14194377 -10 3 C-6.84797188 -0.8936818 -4.68267976 -1.63893791 0 0 Z " fill="#F9F9F9" transform="translate(116,144)"/>
<path d="M0 0 C3.77453403 0.21365287 6.29954802 0.5150717 9.4375 2.6875 C11.53839453 5.7968239 11.66447995 7.30844473 11 11 C8.875 14.375 8.875 14.375 6 17 C2.75 17.4375 2.75 17.4375 0 17 C-1.75559942 15.24440058 -1.13221919 12.96417558 -1.13671875 10.62890625 C-1.13285156 9.92636719 -1.12898437 9.22382812 -1.125 8.5 C-1.12886719 7.79746094 -1.13273438 7.09492187 -1.13671875 6.37109375 C-1.12661378 1.12661378 -1.12661378 1.12661378 0 0 Z " fill="#F8F6F9" transform="translate(142,69)"/>
<path d="M0 0 C7.92 0 15.84 0 24 0 C24 1.32 24 2.64 24 4 C20.1496752 7.68291938 17.35680313 9.34651176 12 9.625 C6.64319687 9.34651176 3.8503248 7.68291938 0 4 C0 2.68 0 1.36 0 0 Z " fill="#F7F6F8" transform="translate(84,133)"/>
<path d="M0 0 C7.59 0 15.18 0 23 0 C23 1.32 23 2.64 23 4 C15.08 4 7.16 4 -1 4 C-0.67 2.68 -0.34 1.36 0 0 Z " fill="#F4F0F2" transform="translate(174,138)"/>
<path d="M0 0 C1.134375 0.020625 2.26875 0.04125 3.4375 0.0625 C3.4375 3.0325 3.4375 6.0025 3.4375 9.0625 C1.10455225 9.10491723 -1.22952567 9.10342937 -3.5625 9.0625 C-4.5625 8.0625 -4.5625 8.0625 -4.6875 4.5625 C-4.52739028 0.0794279 -4.52739028 0.0794279 0 0 Z " fill="#4287E1" transform="translate(112.5625,72.9375)"/>
<path d="M0 0 C2.33294775 -0.04241723 4.66702567 -0.04092937 7 0 C8 1 8 1 8.0625 4.5625 C8.041875 5.696875 8.02125 6.83125 8 8 C5.36 8 2.72 8 0 8 C0 5.36 0 2.72 0 0 Z " fill="#4188E1" transform="translate(153,191)"/>
<path d="M0 0 C2.33294775 -0.04241723 4.66702567 -0.04092937 7 0 C8 1 8 1 8.0625 4.5625 C8.041875 5.696875 8.02125 6.83125 8 8 C5.36 8 2.72 8 0 8 C0 5.36 0 2.72 0 0 Z " fill="#3787E1" transform="translate(76,73)"/>
<path d="M0 0 C2.31 0 4.62 0 7 0 C7 2.64 7 5.28 7 8 C4.69 8 2.38 8 0 8 C0 5.36 0 2.72 0 0 Z " fill="#3783E1" transform="translate(210,191)"/>
<path d="M0 0 C3.875 0.875 3.875 0.875 5 2 C5.04080783 3.99958364 5.04254356 6.00045254 5 8 C3.02 8.99 3.02 8.99 1 10 C0.01 9.01 -0.98 8.02 -2 7 C-1.34 4.69 -0.68 2.38 0 0 Z " fill="#EBEBF2" transform="translate(94,151)"/>
<path d="M0 0 C0.33 0 0.66 0 1 0 C1.05534912 0.74161377 1.11069824 1.48322754 1.16772461 2.24731445 C1.42037 5.60268708 1.67886514 8.95758396 1.9375 12.3125 C2.02451172 13.47974609 2.11152344 14.64699219 2.20117188 15.84960938 C2.28818359 16.96787109 2.37519531 18.08613281 2.46484375 19.23828125 C2.543396 20.26993408 2.62194824 21.30158691 2.70288086 22.36450195 C2.91926092 25.10437997 2.91926092 25.10437997 4 28 C4.12781786 30.67394964 4.04391871 33.32095857 4 36 C1.68791079 31.37582158 0.73170954 27.93098769 0.4375 22.75 C0.3950415 22.04359375 0.35258301 21.3371875 0.30883789 20.609375 C-0.07240284 13.73630268 -0.09679329 6.88307816 0 0 Z " fill="#D6BDE3" transform="translate(100,191)"/>
<path d="M0 0 C0.33 0 0.66 0 1 0 C0.85924795 2.93782469 0.7126162 5.87515171 0.5625 8.8125 C0.50352539 10.06256836 0.50352539 10.06256836 0.44335938 11.33789062 C0.40146484 12.14033203 0.35957031 12.94277344 0.31640625 13.76953125 C0.27974854 14.50792236 0.24309082 15.24631348 0.20532227 16.00708008 C0 18 0 18 -1 21 C-1.22179785 22.89212737 -1.40614015 24.78884472 -1.5625 26.6875 C-1.64628906 27.68136719 -1.73007813 28.67523438 -1.81640625 29.69921875 C-1.87699219 30.45847656 -1.93757813 31.21773437 -2 32 C-2.33 32 -2.66 32 -3 32 C-3.02698422 29.56242587 -3.04683099 27.12515085 -3.0625 24.6875 C-3.07087891 23.99720703 -3.07925781 23.30691406 -3.08789062 22.59570312 C-3.10307906 19.4516975 -3.00193327 17.00579981 -2 14 C-1.69459331 10.90775724 -1.49167689 7.81488281 -1.28125 4.71484375 C-1 2 -1 2 0 0 Z " fill="#F3DBE5" transform="translate(83,193)"/>
<path d="M0 0 C1.32 0 2.64 0 4 0 C5.14077657 3.42232972 5.09815117 6.08673217 5.0625 9.6875 C5.05347656 10.86699219 5.04445313 12.04648438 5.03515625 13.26171875 C5.02355469 14.16535156 5.01195313 15.06898438 5 16 C4.67 16 4.34 16 4 16 C4 12.37 4 8.74 4 5 C2.68 4.67 1.36 4.34 0 4 C0 2.68 0 1.36 0 0 Z " fill="#E8D4E9" transform="translate(94,171)"/>
</svg>
